# Blender 3.5.1
# www.blender.org
o head
v -0.271320 1.768048 0.235684
v -0.330546 2.073839 0.322068
v -0.271320 1.819860 -0.265830
v -0.330546 2.137355 -0.271892
v 0.277162 1.768048 0.235684
v 0.336388 2.073839 0.322068
v 0.277162 1.819860 -0.265830
v 0.336388 2.137355 -0.271892
v -0.292067 1.959856 0.279391
v -0.330546 1.997128 0.317377
v -0.330546 2.060644 -0.276583
v -0.292067 2.016042 -0.247550
v -0.292067 1.857879 -0.261797
v 0.336388 2.060644 -0.276583
v 0.297909 2.016042 -0.247550
v 0.297909 1.857879 -0.261797
v 0.336388 1.997128 0.317377
v 0.297909 1.959856 0.279391
v 0.176883 1.826426 -0.327713
v 0.002921 1.829303 -0.354834
v -0.171041 1.826426 -0.327713
v -0.193733 2.145002 -0.341823
v 0.002921 2.148354 -0.372471
v 0.199575 2.145002 -0.341823
v -0.158806 1.756680 0.315104
v 0.002921 1.753802 0.342224
v 0.164648 1.756680 0.315104
v 0.199575 2.061389 0.409535
v 0.002921 2.058038 0.440183
v -0.193733 2.061389 0.409535
v 0.176883 1.948288 0.358789
v 0.002921 1.945323 0.385901
v -0.171041 1.948288 0.358789
v 0.199575 1.984678 0.404845
v 0.002921 1.981326 0.435493
v -0.193733 1.984678 0.404845
v -0.171041 1.903155 -0.319572
v 0.002921 1.906033 -0.346693
v 0.176883 1.903155 -0.319572
v -0.171041 2.022808 -0.309411
v 0.002921 2.025773 -0.336523
v 0.176883 2.022808 -0.309411
v -0.193733 2.068291 -0.346513
v 0.002921 2.071643 -0.377161
v 0.199575 2.068291 -0.346513
v -0.307683 1.807078 -0.145353
v -0.320533 1.792596 -0.008852
v -0.307683 1.778113 0.140813
v -0.374762 2.088728 0.185923
v -0.390386 2.105597 0.018506
v -0.374762 2.122466 -0.135747
v 0.313525 1.778113 0.140813
v 0.326375 1.792596 -0.008852
v 0.313525 1.807078 -0.145353
v 0.380604 2.122466 -0.135747
v 0.396228 2.105597 0.018506
v 0.380604 2.088728 0.185923
v 0.337023 2.002872 -0.127115
v 0.350844 1.987949 0.009339
v 0.337023 1.973027 0.158956
v 0.380604 2.045755 -0.140438
v 0.396228 2.028886 0.013815
v 0.380604 2.012017 0.181232
v -0.331181 1.973027 0.158956
v -0.345002 1.987949 0.009339
v -0.331181 2.002872 -0.127115
v -0.374762 2.012017 0.181232
v -0.390386 2.028886 0.013815
v -0.374762 2.045755 -0.140438
v 0.176883 2.183534 -0.147970
v 0.176883 2.164622 0.024961
v 0.176883 2.145710 0.211055
v 0.002921 2.183534 -0.147970
v 0.002921 2.164622 0.024961
v 0.002921 2.145710 0.211055
v -0.171041 2.183534 -0.147970
v -0.171041 2.164622 0.024961
v -0.171041 2.145710 0.211055
v -0.289026 1.826735 -0.420807
v -0.268493 1.788834 -0.415794
v -0.152737 1.784638 -0.590296
v 0.294868 1.826735 -0.420807
v 0.274335 1.788834 -0.415794
v 0.158579 1.822540 -0.595309
v 0.158579 1.784638 -0.590296
v 0.002921 1.787785 -0.624527
v -0.152737 1.822540 -0.595309
v 0.002921 1.825686 -0.629539
vn -0.9515 0.0188 -0.3070
vn 0.4569 0.0543 -0.8879
vn 0.9515 -0.0188 0.3070
vn -0.5412 -0.0513 0.8393
vn -0.1541 0.9156 0.3714
vn 0.9291 -0.1437 0.3408
vn -0.3750 -0.8083 0.4539
vn -0.9917 0.0115 -0.1280
vn 0.6273 -0.7695 0.1196
vn -0.0601 0.9570 -0.2838
vn 0.4536 0.0799 -0.8876
vn 0.2993 -0.6883 -0.6608
vn 0.5775 -0.2164 0.7872
vn -0.6273 -0.7255 -0.2831
vn -0.2993 -0.6883 -0.6608
vn -0.1048 -0.6595 -0.7444
vn 0.1048 -0.6595 -0.7444
vn -0.4536 0.0799 -0.8876
vn -0.1549 0.0836 -0.9844
vn 0.1549 0.0836 -0.9844
vn -0.8808 -0.4666 0.0799
vn -0.0412 -0.9863 0.1598
vn 0.3370 0.8974 -0.2847
vn 0.3750 -0.8083 0.4539
vn 0.1048 -0.8048 0.5843
vn -0.1048 -0.8048 0.5843
vn 0.1652 -0.2193 0.9616
vn -0.1652 -0.2193 0.9616
vn 0.9793 -0.1012 -0.1755
vn 0.2865 0.9379 0.1956
vn -0.0000 0.9204 0.3910
vn -0.0397 0.9332 0.3571
vn 0.0066 -0.9945 -0.1045
vn 0.5412 -0.0513 0.8393
vn 0.1547 -0.0603 0.9861
vn -0.1547 -0.0603 0.9861
vn -0.4569 0.0543 -0.8879
vn -0.1547 0.0603 -0.9861
vn 0.1547 0.0603 -0.9861
vn -0.0409 0.9871 -0.1547
vn -0.0000 0.9941 0.1087
vn -0.0000 0.9949 0.1011
vn -0.0000 0.9808 -0.1950
vn 0.2865 0.9580 0.0117
vn 0.2612 0.9621 0.0788
vn 0.2613 0.9577 0.1209
vn -0.6273 -0.7695 0.1196
vn -0.6704 -0.7419 -0.0121
vn -0.6704 -0.7272 -0.1474
vn -0.9894 -0.1260 0.0727
vn -0.9879 -0.1140 -0.1051
vn 0.6273 -0.7255 -0.2831
vn 0.6704 -0.7272 -0.1474
vn 0.6704 -0.7419 -0.0121
vn 0.9879 -0.1140 -0.1051
vn 0.9894 -0.1260 0.0727
vn -0.9291 -0.1437 0.3408
vn -0.1447 0.9736 -0.1766
vn -0.2798 0.9544 0.1044
vn -0.2792 0.9553 0.0971
vn 0.9515 0.0188 -0.3070
vn 0.9950 0.0061 -0.1001
vn 0.9957 -0.0056 0.0924
vn -0.9515 -0.0188 0.3070
vn -0.9957 -0.0056 0.0924
vn -0.9950 0.0061 -0.1001
vn 0.8319 -0.0728 -0.5501
vn -0.8319 -0.0728 -0.5501
vn -0.2105 -0.1282 -0.9691
vn 0.2105 -0.1282 -0.9691
vn 0.2187 -0.9612 0.1682
vn 0.0534 -0.9869 0.1519
vn 0.0793 0.9589 -0.2724
vn -0.1878 -0.9611 0.2024
vn -0.4196 0.8892 -0.1822
vn 0.8716 -0.4839 0.0781
vn -0.5775 -0.2164 0.7872
vn -0.2865 0.9379 0.1956
vn 0.9429 -0.1676 0.2879
vn -0.3582 -0.8217 0.4433
vn -0.9450 -0.0840 -0.3161
vn -0.8499 -0.4317 -0.3023
vn -0.0793 0.9589 -0.2724
vn 0.4572 0.0753 -0.8862
vn 0.5483 -0.2417 0.8006
vn -0.4572 0.0753 -0.8862
vn -0.1548 0.0836 -0.9844
vn 0.1548 0.0836 -0.9844
vn -0.8716 -0.4839 0.0781
vn -0.0534 -0.9869 0.1519
vn 0.4196 0.8892 -0.1822
vn 0.3582 -0.8217 0.4433
vn 0.1537 -0.2290 0.9612
vn -0.1537 -0.2290 0.9612
vn 0.8499 -0.4317 -0.3023
vn 0.9516 0.0276 -0.3060
vn 0.1541 0.9156 0.3714
vn 0.0397 0.9332 0.3571
vn -0.0357 -0.9951 -0.0919
vn 0.0515 -0.9936 -0.1006
vn -0.0000 -0.9944 -0.1055
vn -0.0515 -0.9936 -0.1006
vn 0.0357 -0.9951 -0.0919
vn -0.0253 -0.9946 -0.1007
vn -0.0065 -0.9949 -0.1007
vn -0.0000 -0.9925 -0.1221
vn -0.0011 -0.9941 -0.1084
vn 0.0409 0.9871 -0.1547
vn 0.1447 0.9736 -0.1766
vn 0.2798 0.9544 0.1044
vn 0.2792 0.9553 0.0971
vn -0.6702 -0.7421 -0.0122
vn -0.6705 -0.7272 -0.1474
vn -0.9883 -0.1311 0.0782
vn -0.9878 -0.1081 -0.1119
vn 0.6702 -0.7421 -0.0122
vn 0.9878 -0.1081 -0.1119
vn 0.9883 -0.1311 0.0782
vn -0.9429 -0.1676 0.2879
vn -0.2865 0.9580 0.0117
vn -0.2612 0.9621 0.0788
vn -0.2613 0.9577 0.1209
vn 0.7072 -0.4547 -0.5414
vn -0.7072 -0.4547 -0.5414
vn 0.1878 -0.9611 0.2024
vn 0.0412 -0.9863 0.1598
vn 0.0601 0.9570 -0.2838
vn -0.2187 -0.9612 0.1682
vn -0.3370 0.8974 -0.2847
vn 0.8808 -0.4666 0.0799
vn -0.5483 -0.2417 0.8006
vt 0.626009 0.704175
vt 0.232696 0.793006
vt 0.012872 0.586567
vt 0.225602 0.580632
vt 0.555252 0.801204
vt 0.907071 0.195806
vt 0.842400 0.710434
vt 0.557242 0.581802
vt 0.232734 0.014426
vt 0.013063 0.220527
vt 0.621072 0.935420
vt 0.225745 0.226666
vt 0.555126 0.006042
vt 0.837533 0.938401
vt 0.920357 0.576011
vt 0.557258 0.225373
vt 0.225979 0.669605
vt 0.134907 0.586680
vt 0.177106 0.590481
vt 0.216777 0.628934
vt 0.562671 0.631458
vt 0.604847 0.591256
vt 0.552715 0.673013
vt 0.645306 0.584390
vt 0.741047 0.591285
vt 0.552281 0.773864
vt 0.941626 0.220811
vt 0.604859 0.215918
vt 0.562653 0.175725
vt 0.645315 0.222783
vt 0.552671 0.134187
vt 0.741047 0.215887
vt 0.953083 0.548655
vt 0.552173 0.033374
vt 0.216908 0.178402
vt 0.177273 0.216777
vt 0.226086 0.137755
vt 0.135081 0.220536
vt 0.863729 0.896759
vt 0.875614 0.825179
vt 0.866795 0.753157
vt 0.578769 0.497210
vt 0.587439 0.403569
vt 0.578793 0.309953
vt 0.010581 0.502260
vt 0.589989 0.750902
vt 0.009972 0.403538
vt 0.576829 0.818800
vt 0.010687 0.304820
vt 0.587079 0.887197
vt 0.198835 0.312828
vt 0.188903 0.403630
vt 0.198744 0.494426
vt 0.127311 0.307734
vt 0.122790 0.403597
vt 0.127215 0.499459
vt 0.161001 0.308072
vt 0.152225 0.403611
vt 0.160906 0.499151
vt 0.722882 0.507679
vt 0.965742 0.299905
vt 0.726489 0.403579
vt 0.965508 0.384099
vt 0.722884 0.299486
vt 0.971619 0.468071
vt 0.652467 0.503280
vt 0.657268 0.403575
vt 0.652476 0.303884
vt 0.617705 0.504531
vt 0.626308 0.403574
vt 0.617719 0.302634
vt 0.790779 0.693079
vt 0.475312 0.798861
vt 0.732014 0.685767
vt 0.389027 0.797662
vt 0.295610 0.793822
vt 0.667409 0.689771
vt 0.308335 0.597156
vt 0.394528 0.603816
vt 0.474486 0.598219
vt 0.295609 0.013577
vt 0.661820 0.951577
vt 0.726195 0.958335
vt 0.388971 0.009685
vt 0.785219 0.953537
vt 0.475219 0.008435
vt 0.474505 0.209007
vt 0.394555 0.203443
vt 0.308423 0.210128
vt 0.473350 0.130779
vt 0.391891 0.129758
vt 0.303723 0.133403
vt 0.476369 0.166963
vt 0.392029 0.162949
vt 0.301166 0.169161
vt 0.303666 0.673927
vt 0.391887 0.677533
vt 0.473372 0.676469
vt 0.301091 0.638149
vt 0.392012 0.644327
vt 0.476373 0.640273
vt 0.482539 0.316841
vt 0.394925 0.316501
vt 0.301178 0.317485
vt 0.481077 0.403517
vt 0.395040 0.403625
vt 0.302883 0.403725
vt 0.482448 0.490314
vt 0.394951 0.490737
vt 0.301017 0.489822
vt 0.873952 0.255630
vt 0.840786 0.236131
vt 0.911986 0.707188
vt 0.797551 0.317952
vt 0.983024 0.760854
vt 0.883144 0.518645
vt 0.906917 0.944615
vt 0.851419 0.540411
vt 0.834559 0.448528
vt 0.802578 0.461809
vt 0.980181 0.894030
vt 0.994798 0.827724
vt 0.788828 0.390273
vt 0.830380 0.328968
vt 0.826572 0.388954
s 0
f 51/80/1 11/21/1 69/101/1
f 45/71/2 8/16/2 14/28/2
f 63/95/3 6/12/3 17/35/3
f 30/53/4 10/19/4 36/59/4
f 78/110/5 2/4/5 30/53/5
f 60/92/6 5/9/6 52/81/6
f 36/59/7 9/18/7 33/56/7
f 12/23/8 13/26/8 46/73/8
f 63/95/9 18/37/9 60/92/9
f 38/63/10 87/124/10 37/61/10
f 39/64/11 15/30/11 16/32/11
f 45/71/12 15/30/12 42/68/12
f 5/10/13 31/54/13 27/49/13
f 69/101/14 12/23/14 66/98/14
f 12/24/15 43/69/15 40/66/15
f 40/66/16 44/70/16 41/67/16
f 44/70/17 42/68/17 41/67/17
f 12/24/18 37/60/18 13/25/18
f 40/66/19 38/62/19 37/60/19
f 38/62/20 42/68/20 39/64/20
f 3/6/21 79/111/21 80/112/21
f 20/40/22 85/121/22 19/39/22
f 39/65/23 82/116/23 84/119/23
f 18/38/24 34/57/24 31/54/24
f 31/54/25 35/58/25 32/55/25
f 35/58/26 33/56/26 32/55/26
f 27/49/27 32/55/27 26/47/27
f 32/55/28 25/45/28 26/47/28
f 16/34/29 58/90/29 54/86/29
f 72/104/30 6/12/30 57/89/30
f 75/107/31 28/51/31 72/104/31
f 75/107/32 30/53/32 29/52/32
f 19/39/33 52/82/33 25/46/33
f 17/36/34 28/51/34 34/57/34
f 34/57/35 29/52/35 35/58/35
f 29/52/36 36/59/36 35/58/36
f 4/8/37 43/69/37 11/22/37
f 22/42/38 44/70/38 43/69/38
f 44/70/39 24/44/39 45/71/39
f 22/42/40 73/105/40 23/43/40
f 76/108/41 74/106/41 73/105/41
f 77/109/42 75/107/42 74/106/42
f 24/44/43 73/105/43 70/102/43
f 73/105/41 71/103/41 70/102/41
f 74/106/42 72/104/42 71/103/42
f 8/16/44 70/102/44 55/87/44
f 55/87/45 71/103/45 56/88/45
f 71/103/46 57/89/46 56/88/46
f 9/17/47 67/99/47 64/96/47
f 64/96/48 68/100/48 65/97/48
f 68/100/49 66/98/49 65/97/49
f 64/96/50 47/75/50 48/76/50
f 65/97/51 46/73/51 47/75/51
f 15/31/52 61/93/52 58/90/52
f 58/90/53 62/94/53 59/91/53
f 62/94/54 60/92/54 59/91/54
f 54/86/55 59/91/55 53/84/55
f 53/84/56 60/92/56 52/81/56
f 1/2/57 64/96/57 48/76/57
f 4/8/58 76/108/58 22/42/58
f 51/80/59 77/109/59 76/108/59
f 77/109/60 49/78/60 78/110/60
f 14/29/61 55/87/61 61/93/61
f 61/93/62 56/88/62 62/94/62
f 62/94/63 57/89/63 63/95/63
f 2/4/64 67/99/64 10/20/64
f 49/78/65 68/100/65 67/99/65
f 50/79/66 69/101/66 68/100/66
f 84/119/67 83/118/67 85/120/67
f 80/112/68 87/124/68 81/114/68
f 87/124/69 86/123/69 81/114/69
f 86/123/70 84/119/70 85/120/70
f 21/41/71 80/113/71 81/115/71
f 20/40/72 81/115/72 86/122/72
f 38/63/73 84/119/73 88/125/73
f 19/39/74 83/117/74 7/14/74
f 37/61/75 79/111/75 13/27/75
f 7/15/76 82/116/76 16/33/76
f 33/56/77 1/3/77 25/45/77
f 51/80/1 4/8/1 11/21/1
f 45/71/2 24/44/2 8/16/2
f 63/95/3 57/89/3 6/12/3
f 30/53/4 2/4/4 10/19/4
f 78/110/78 49/78/78 2/4/78
f 60/92/79 18/37/79 5/9/79
f 36/59/80 10/19/80 9/18/80
f 46/73/81 66/98/81 12/23/81
f 13/26/82 3/5/82 46/73/82
f 63/95/9 17/35/9 18/37/9
f 38/63/83 88/125/83 87/124/83
f 39/64/84 42/68/84 15/30/84
f 45/71/12 14/28/12 15/30/12
f 5/10/85 18/38/85 31/54/85
f 69/101/14 11/21/14 12/23/14
f 12/24/15 11/22/15 43/69/15
f 40/66/16 43/69/16 44/70/16
f 44/70/17 45/71/17 42/68/17
f 12/24/86 40/66/86 37/60/86
f 40/66/87 41/67/87 38/62/87
f 38/62/88 41/67/88 42/68/88
f 3/6/89 13/27/89 79/111/89
f 20/40/90 86/122/90 85/121/90
f 39/65/91 16/33/91 82/116/91
f 18/38/92 17/36/92 34/57/92
f 31/54/25 34/57/25 35/58/25
f 35/58/26 36/59/26 33/56/26
f 27/49/93 31/54/93 32/55/93
f 32/55/94 33/56/94 25/45/94
f 54/86/95 7/13/95 16/34/95
f 16/34/96 15/31/96 58/90/96
f 72/104/97 28/51/97 6/12/97
f 75/107/98 29/52/98 28/51/98
f 75/107/31 78/110/31 30/53/31
f 25/46/99 1/1/99 48/77/99
f 48/77/100 47/74/100 46/72/100
f 46/72/101 3/7/101 21/41/101
f 21/41/101 20/40/101 19/39/101
f 19/39/101 7/14/101 54/85/101
f 54/85/102 53/83/102 52/82/102
f 52/82/103 5/11/103 27/50/103
f 27/50/101 26/48/101 25/46/101
f 25/46/104 48/77/104 46/72/104
f 46/72/101 21/41/101 19/39/101
f 19/39/105 54/85/105 52/82/105
f 52/82/106 27/50/106 25/46/106
f 25/46/107 46/72/107 19/39/107
f 17/36/34 6/12/34 28/51/34
f 34/57/35 28/51/35 29/52/35
f 29/52/36 30/53/36 36/59/36
f 4/8/37 22/42/37 43/69/37
f 22/42/38 23/43/38 44/70/38
f 44/70/39 23/43/39 24/44/39
f 22/42/43 76/108/43 73/105/43
f 76/108/41 77/109/41 74/106/41
f 77/109/42 78/110/42 75/107/42
f 24/44/108 23/43/108 73/105/108
f 73/105/41 74/106/41 71/103/41
f 74/106/42 75/107/42 72/104/42
f 8/16/109 24/44/109 70/102/109
f 55/87/110 70/102/110 71/103/110
f 71/103/111 72/104/111 57/89/111
f 9/17/47 10/20/47 67/99/47
f 64/96/112 67/99/112 68/100/112
f 68/100/113 69/101/113 66/98/113
f 64/96/114 65/97/114 47/75/114
f 65/97/115 66/98/115 46/73/115
f 15/31/52 14/29/52 61/93/52
f 58/90/53 61/93/53 62/94/53
f 62/94/116 63/95/116 60/92/116
f 54/86/117 58/90/117 59/91/117
f 53/84/118 59/91/118 60/92/118
f 1/2/119 9/17/119 64/96/119
f 4/8/120 51/80/120 76/108/120
f 51/80/121 50/79/121 77/109/121
f 77/109/122 50/79/122 49/78/122
f 14/29/61 8/16/61 55/87/61
f 61/93/62 55/87/62 56/88/62
f 62/94/63 56/88/63 57/89/63
f 2/4/64 49/78/64 67/99/64
f 49/78/65 50/79/65 68/100/65
f 50/79/66 51/80/66 69/101/66
f 84/119/123 82/116/123 83/118/123
f 80/112/124 79/111/124 87/124/124
f 87/124/69 88/125/69 86/123/69
f 86/123/70 88/125/70 84/119/70
f 21/41/125 3/7/125 80/113/125
f 20/40/126 21/41/126 81/115/126
f 38/63/127 39/65/127 84/119/127
f 19/39/128 85/121/128 83/117/128
f 37/61/129 87/124/129 79/111/129
f 7/15/130 83/118/130 82/116/130
f 33/56/131 9/18/131 1/3/131
