# Blender 3.1.0
# www.blender.org
o left_foot
v -0.244898 0.028880 -0.133038
v -0.244898 0.030872 0.153336
v 0.014200 0.028880 -0.133038
v 0.014200 0.030872 0.153336
v -0.032163 0.042031 -0.379270
v -0.198534 0.042031 -0.379270
v -0.027226 0.041356 -0.387344
v 0.021890 0.028836 -0.133569
v 0.021890 0.031665 0.162825
v -0.252587 0.031665 0.162825
v -0.252587 0.028836 -0.133569
v -0.252587 -0.017916 -0.132773
v -0.203472 0.041356 -0.387344
v -0.203472 0.003907 -0.387147
v 0.021890 -0.017916 0.164516
v -0.252587 -0.017916 0.164516
v 0.021890 -0.017916 -0.132773
v -0.027226 0.003907 -0.387147
v -0.244898 0.023805 -0.132980
v -0.244898 0.025798 0.153394
v -0.244898 0.226858 0.142090
v -0.244898 0.226804 -0.145603
v -0.244898 0.129626 -0.165270
v 0.014200 0.028880 -0.133038
v 0.014200 0.134700 -0.165328
v 0.014200 0.231878 -0.145661
v 0.014200 0.231932 0.142032
v 0.014200 0.030872 0.153336
v -0.033878 0.231878 -0.145661
v -0.033878 0.134700 -0.165328
v -0.032163 0.042031 -0.379270
v -0.198534 0.042031 -0.379270
v -0.198534 0.103847 -0.375949
v -0.032163 0.103847 -0.375949
v -0.167662 0.103847 -0.375949
v -0.196819 0.134700 -0.165328
v -0.196819 0.129629 -0.154068
v -0.063036 0.103847 -0.375949
v -0.196819 0.231878 -0.145661
v -0.033878 0.231990 -0.134472
v -0.033878 0.129629 -0.154068
v -0.196819 0.231990 -0.134472
v -0.244898 0.130609 0.130786
v 0.014200 0.135684 0.130728
v -0.244898 0.129711 -0.139565
v 0.014200 0.134786 -0.139623
v -0.244898 0.226804 -0.145603
v 0.014200 0.231878 -0.145661
v -0.196819 0.231888 -0.115373
v -0.033878 0.231888 -0.115373
v -0.033878 0.275048 -0.145221
v -0.196819 0.275048 -0.145221
v -0.033878 0.287734 -0.131505
v -0.196819 0.287733 -0.131505
vn -0.9818 -0.0010 -0.1901
vn -0.0093 0.9986 0.0516
vn 0.9818 -0.0010 -0.1901
vn -0.0000 0.0341 0.9994
vn 1.0000 -0.0000 -0.0000
vn -1.0000 -0.0000 -0.0000
vn 0.0093 0.9986 0.0516
vn -0.0000 -1.0000 -0.0000
vn -0.0000 -0.9963 -0.0855
vn -0.0000 0.9965 -0.0833
vn -0.0000 -0.0053 -1.0000
vn -0.0000 0.9965 -0.0834
vn 0.0053 1.0000 -0.0070
vn -0.0053 1.0000 -0.0070
vn -0.1041 0.9842 -0.1433
vn -0.9803 -0.0576 -0.1888
vn -0.9763 0.0116 -0.2163
vn 0.9766 -0.0628 -0.2058
vn 0.9828 0.0099 -0.1845
vn 0.9691 0.2248 0.1012
vn -0.0221 0.1983 -0.9799
vn -0.0000 0.9894 -0.1449
vn -0.9691 0.2248 0.1012
vn -0.0000 -0.2422 -0.9702
vn -0.0000 0.0536 -0.9986
vn -0.0000 0.9933 -0.1154
vn -0.0000 0.1880 -0.9822
vn -0.0000 0.1984 -0.9801
vn -0.0039 0.2108 0.9775
vn 0.0025 -0.1166 0.9932
vn -0.0196 0.9997 0.0159
vn -0.1050 0.9945 -0.0003
vn 0.0035 1.0000 0.0053
vn -0.0000 0.7341 -0.6790
vn -0.0000 0.2775 0.9607
vn -0.9818 -0.0032 -0.1898
vn -0.1629 0.9865 0.0171
vn 0.9818 -0.0032 -0.1898
vn 0.1630 0.9865 0.0171
vn -0.0910 0.9958 -0.0095
vn 0.0910 0.9958 -0.0095
vn -0.0000 1.0000 -0.0000
vn 0.0001 1.0000 -0.0002
vn -0.1050 0.9945 -0.0002
vn -0.0000 1.0000 -0.0002
vn -0.0000 1.0000 -0.0099
vn -0.0000 0.7342 -0.6790
vt 0.282254 0.030324
vt 0.629342 0.030390
vt 0.282195 0.371125
vt 0.629345 0.371115
vt 0.044466 0.309479
vt 0.044751 0.091845
vt 0.988113 0.011244
vt 0.888812 0.336924
vt 0.033828 0.316038
vt 0.988113 0.198722
vt 0.281480 0.381242
vt 0.988113 0.413089
vt 0.641867 0.381242
vt 0.988113 0.609913
vt 0.641865 0.020268
vt 0.988113 0.824281
vt 0.281543 0.020215
vt 0.283533 0.341152
vt 0.955788 0.824281
vt 0.988113 0.989611
vt 0.698449 0.336924
vt 0.034151 0.085284
vt 0.078019 0.288103
vt 0.955788 0.989611
vt 0.698449 0.363225
vt 0.580215 0.044691
vt 0.955788 0.413089
vt 0.580214 0.341152
vt 0.955788 0.609913
vt 0.283533 0.044691
vt 0.955788 0.198722
vt 0.078019 0.097740
vt 0.955788 0.011244
vt 0.888812 0.363225
vt 0.204682 0.766528
vt 0.489577 0.777871
vt 0.805722 0.420400
vt 0.489620 0.985786
vt 0.597808 0.420400
vt 0.205002 0.985786
vt 0.313190 0.420400
vt 0.183739 0.880829
vt 0.206101 0.420398
vt 0.204733 0.770343
vt 0.206101 0.700252
vt 0.183790 0.884643
vt 0.205053 0.989600
vt 0.313191 0.700250
vt 0.489671 0.989600
vt 0.597808 0.700250
vt 0.489628 0.781686
vt 0.805722 0.700250
vt 0.110733 0.516499
vt 0.313190 0.648322
vt 0.206100 0.648323
vt 0.132217 0.592576
vt 0.002969 0.783288
vt 0.296890 0.629003
vt 0.002927 0.779601
vt 0.296890 0.488265
vt 0.005951 0.846396
vt 0.032071 0.470473
vt 0.349258 0.488265
vt 0.006027 0.850081
vt 0.032071 0.650178
vt 0.349258 0.629003
vt 0.130978 0.522917
vt 0.536312 0.775271
vt 0.032070 0.503817
vt 0.349258 0.514380
vt 0.206100 0.472328
vt 0.260369 0.540371
vt 0.266511 0.535851
vt 0.804346 0.777483
vt 0.261604 0.610029
vt 0.032070 0.616834
vt 0.349258 0.602887
vt 0.534685 0.971304
vt 0.281852 0.616448
vt 0.313190 0.472330
vt 0.917619 0.160871
vt 0.922709 0.974508
vt 0.104335 0.516894
vt 0.321872 0.648321
vt 0.940768 0.016249
vt 0.802725 0.973517
vt 0.126075 0.597096
vt 0.696391 0.017980
vt 0.288249 0.616053
vt 0.721582 0.162257
vt 0.924327 0.778473
vt 0.321872 0.472330
vt 0.489598 0.881829
vt 0.701765 0.420400
vt 0.701765 0.700250
vt 0.489649 0.885643
vt 0.204849 0.880916
vt 0.204900 0.884731
vt 0.254193 0.985786
vt 0.362382 0.420400
vt 0.258272 0.989600
vt 0.366409 0.700250
vt 0.363149 0.473697
vt 0.720561 0.017809
vt 0.365689 0.650189
vt 0.916598 0.016420
vt 0.917188 0.099885
vt 0.941199 0.077236
vt 0.721151 0.101272
vt 0.696822 0.078965
vt 0.917029 0.077407
vt 0.720992 0.078794
s 0
f 14/24/1 11/16/1 13/20/1
f 6/6/2 11/17/2 1/1/2
f 8/10/3 18/33/3 7/7/3
f 16/29/4 9/12/4 10/14/4
f 9/12/5 17/31/5 8/10/5
f 12/19/6 10/14/6 11/16/6
f 8/11/7 5/5/7 3/3/7
f 15/26/8 16/28/8 12/18/8
f 12/18/8 17/30/8 15/26/8
f 18/32/9 17/30/9 12/18/9
f 12/18/9 14/23/9 18/32/9
f 10/15/10 4/4/10 2/2/10
f 18/34/11 13/21/11 7/8/11
f 7/9/12 6/6/12 5/5/12
f 4/4/13 8/11/13 3/3/13
f 11/17/14 2/2/14 1/1/14
f 21/38/6 22/40/6 43/93/6
f 22/40/6 23/42/6 45/97/6
f 23/42/6 19/35/6 45/97/6
f 25/46/5 26/47/5 46/98/5
f 36/71/15 33/62/15 23/43/15
f 32/59/16 19/35/16 23/42/16
f 23/42/17 33/61/17 32/59/17
f 34/64/18 25/46/18 24/44/18
f 24/44/19 31/57/19 34/64/19
f 24/44/5 44/96/5 28/51/5
f 43/93/6 19/35/6 20/36/6
f 35/67/20 36/72/20 37/73/20
f 22/41/21 36/71/21 23/43/21
f 34/65/22 30/55/22 25/45/22
f 36/72/5 42/89/5 37/73/5
f 30/56/23 38/75/23 41/87/23
f 42/90/24 51/107/24 40/81/24
f 32/60/25 35/70/25 38/77/25
f 37/74/26 38/78/26 35/68/26
f 42/91/27 41/86/27 37/74/27
f 30/55/28 26/48/28 25/45/28
f 30/56/6 40/83/6 29/53/6
f 28/52/29 43/94/29 20/37/29
f 44/95/30 21/39/30 43/94/30
f 24/44/5 25/46/5 46/98/5
f 46/98/5 48/101/5 44/96/5
f 49/103/31 21/39/31 27/50/31
f 49/103/32 39/80/32 22/41/32
f 50/105/33 26/48/33 40/84/33
f 51/107/34 54/112/34 53/111/34
f 50/106/35 54/112/35 49/104/35
f 50/106/5 51/108/5 53/111/5
f 49/104/6 52/110/6 42/88/6
f 14/24/36 12/19/36 11/16/36
f 6/6/37 13/22/37 11/17/37
f 8/10/38 17/31/38 18/33/38
f 16/29/4 15/27/4 9/12/4
f 9/12/5 15/27/5 17/31/5
f 12/19/6 16/29/6 10/14/6
f 8/11/39 7/9/39 5/5/39
f 10/15/10 9/13/10 4/4/10
f 18/34/11 14/25/11 13/21/11
f 7/9/12 13/22/12 6/6/12
f 4/4/40 9/13/40 8/11/40
f 11/17/41 10/15/41 2/2/41
f 21/38/42 47/99/42 22/40/42
f 22/40/6 45/97/6 43/93/6
f 36/71/22 35/69/22 33/62/22
f 24/44/5 46/98/5 44/96/5
f 43/93/6 45/97/6 19/35/6
f 22/41/21 39/80/21 36/71/21
f 34/65/22 38/76/22 30/55/22
f 36/72/5 39/79/5 42/89/5
f 42/90/24 52/109/24 51/107/24
f 34/66/25 31/58/25 32/60/25
f 32/60/25 33/63/25 35/70/25
f 38/77/25 34/66/25 32/60/25
f 37/74/26 41/86/26 38/78/26
f 42/91/27 40/82/27 41/86/27
f 30/55/28 29/54/28 26/48/28
f 30/56/6 41/87/6 40/83/6
f 28/52/29 44/95/29 43/94/29
f 44/95/30 27/50/30 21/39/30
f 46/98/42 26/47/42 48/101/42
f 48/101/5 27/49/5 44/96/5
f 27/50/43 48/102/43 50/105/43
f 49/103/44 47/100/44 21/39/44
f 27/50/45 50/105/45 49/103/45
f 49/103/6 42/92/6 39/80/6
f 22/41/42 47/100/42 49/103/42
f 50/105/42 48/102/42 26/48/42
f 26/48/46 29/54/46 40/84/46
f 51/107/47 52/109/47 54/112/47
f 50/106/35 53/111/35 54/112/35
f 50/106/5 40/85/5 51/108/5
f 49/104/6 54/112/6 52/110/6
o right_foot
v -0.011655 0.028880 -0.133038
v -0.011655 0.030872 0.153336
v 0.247442 0.028880 -0.133038
v 0.247442 0.030872 0.153336
v 0.201079 0.042031 -0.379270
v 0.034709 0.042031 -0.379270
v 0.206017 0.041356 -0.387344
v 0.255132 0.028836 -0.133569
v 0.255132 0.031665 0.162825
v -0.019344 0.031665 0.162825
v -0.019344 0.028836 -0.133569
v -0.019344 -0.017916 -0.132773
v 0.029770 0.041356 -0.387344
v 0.029770 0.003907 -0.387147
v 0.255132 -0.017916 0.164516
v -0.019344 -0.017916 0.164516
v 0.255132 -0.017916 -0.132773
v 0.206017 0.003907 -0.387147
v -0.011655 0.023805 -0.132980
v -0.011655 0.025798 0.153394
v -0.011655 0.226858 0.142090
v -0.011655 0.226804 -0.145603
v -0.011655 0.129626 -0.165270
v 0.247442 0.028880 -0.133038
v 0.247442 0.134700 -0.165328
v 0.247442 0.231878 -0.145661
v 0.247442 0.231932 0.142032
v 0.247442 0.030872 0.153336
v 0.199364 0.231878 -0.145661
v 0.199364 0.134700 -0.165328
v 0.201079 0.042031 -0.379270
v 0.034709 0.042031 -0.379270
v 0.034709 0.103847 -0.375949
v 0.201079 0.103847 -0.375949
v 0.065580 0.103847 -0.375949
v 0.036424 0.134700 -0.165328
v 0.036424 0.129629 -0.154068
v 0.170207 0.103847 -0.375949
v 0.036424 0.231878 -0.145661
v 0.199364 0.231990 -0.134472
v 0.199364 0.129629 -0.154068
v 0.036424 0.231990 -0.134472
v -0.011655 0.130609 0.130786
v 0.247442 0.135684 0.130728
v -0.011655 0.129711 -0.139565
v 0.247442 0.134786 -0.139623
v -0.011655 0.226804 -0.145603
v 0.247442 0.231878 -0.145661
v 0.036424 0.231888 -0.115373
v 0.199364 0.231888 -0.115373
v 0.199364 0.275048 -0.145221
v 0.036424 0.275048 -0.145221
v 0.199364 0.287734 -0.131505
v 0.036424 0.287733 -0.131505
vn -0.9818 -0.0010 -0.1901
vn -0.0093 0.9986 0.0516
vn 0.9818 -0.0010 -0.1901
vn -0.0000 0.0341 0.9994
vn 1.0000 -0.0000 -0.0000
vn -1.0000 -0.0000 -0.0000
vn 0.0093 0.9986 0.0516
vn -0.0000 -1.0000 -0.0000
vn -0.0000 -0.9963 -0.0855
vn -0.0000 0.9965 -0.0833
vn -0.0000 -0.0053 -1.0000
vn -0.0000 0.9965 -0.0834
vn 0.0053 1.0000 -0.0070
vn -0.0053 1.0000 -0.0070
vn -0.1041 0.9842 -0.1433
vn -0.9803 -0.0576 -0.1888
vn -0.9763 0.0116 -0.2163
vn 0.9766 -0.0628 -0.2058
vn 0.9828 0.0099 -0.1845
vn 0.9691 0.2248 0.1012
vn -0.0221 0.1983 -0.9799
vn -0.0000 0.9894 -0.1449
vn -0.9691 0.2248 0.1012
vn -0.0000 -0.2422 -0.9702
vn -0.0000 0.0536 -0.9986
vn -0.0000 0.9933 -0.1154
vn -0.0000 0.1880 -0.9822
vn -0.0000 0.1984 -0.9801
vn -0.0039 0.2108 0.9775
vn 0.0025 -0.1166 0.9932
vn -0.0196 0.9997 0.0159
vn -0.1050 0.9945 -0.0003
vn 0.0035 1.0000 0.0053
vn -0.0000 0.7341 -0.6790
vn -0.0000 0.2775 0.9607
vn -0.9818 -0.0032 -0.1898
vn -0.1629 0.9865 0.0171
vn 0.9818 -0.0032 -0.1898
vn 0.1630 0.9865 0.0171
vn -0.0910 0.9958 -0.0095
vn 0.0910 0.9958 -0.0095
vn -0.0000 1.0000 -0.0000
vn 0.0001 1.0000 -0.0002
vn -0.1050 0.9945 -0.0002
vn -0.0000 1.0000 -0.0002
vn -0.0000 1.0000 -0.0099
vn -0.0000 0.7342 -0.6790
vt 0.282254 0.030324
vt 0.629342 0.030390
vt 0.282195 0.371125
vt 0.629345 0.371115
vt 0.044466 0.309479
vt 0.044751 0.091845
vt 0.988113 0.011244
vt 0.888812 0.336924
vt 0.033828 0.316038
vt 0.988113 0.198722
vt 0.281480 0.381242
vt 0.988113 0.413089
vt 0.641867 0.381242
vt 0.988113 0.609913
vt 0.641865 0.020268
vt 0.988113 0.824281
vt 0.281543 0.020215
vt 0.283533 0.341152
vt 0.955788 0.824281
vt 0.988113 0.989611
vt 0.698449 0.336924
vt 0.034151 0.085284
vt 0.078019 0.288103
vt 0.955788 0.989611
vt 0.698449 0.363225
vt 0.580215 0.044691
vt 0.955788 0.413089
vt 0.580214 0.341152
vt 0.955788 0.609913
vt 0.283533 0.044691
vt 0.955788 0.198722
vt 0.078019 0.097740
vt 0.955788 0.011244
vt 0.888812 0.363225
vt 0.204682 0.766528
vt 0.489577 0.777871
vt 0.805722 0.420400
vt 0.489620 0.985786
vt 0.597808 0.420400
vt 0.205002 0.985786
vt 0.313190 0.420400
vt 0.183739 0.880829
vt 0.206101 0.420398
vt 0.204733 0.770343
vt 0.206101 0.700252
vt 0.183790 0.884643
vt 0.205053 0.989600
vt 0.313191 0.700250
vt 0.489671 0.989600
vt 0.597808 0.700250
vt 0.489628 0.781686
vt 0.805722 0.700250
vt 0.110733 0.516499
vt 0.313190 0.648322
vt 0.206100 0.648323
vt 0.132217 0.592576
vt 0.002969 0.783288
vt 0.296890 0.629003
vt 0.002927 0.779601
vt 0.296890 0.488265
vt 0.005951 0.846396
vt 0.032071 0.470473
vt 0.349258 0.488265
vt 0.006027 0.850081
vt 0.032071 0.650178
vt 0.349258 0.629003
vt 0.130978 0.522917
vt 0.536312 0.775271
vt 0.032070 0.503817
vt 0.349258 0.514380
vt 0.206100 0.472328
vt 0.260369 0.540371
vt 0.266511 0.535851
vt 0.804346 0.777483
vt 0.261604 0.610029
vt 0.032070 0.616834
vt 0.349258 0.602887
vt 0.534685 0.971304
vt 0.281852 0.616448
vt 0.313190 0.472330
vt 0.917619 0.160871
vt 0.922709 0.974508
vt 0.104335 0.516894
vt 0.321872 0.648321
vt 0.940768 0.016249
vt 0.802725 0.973517
vt 0.126075 0.597096
vt 0.696391 0.017980
vt 0.288249 0.616053
vt 0.721582 0.162257
vt 0.924327 0.778473
vt 0.321872 0.472330
vt 0.489598 0.881829
vt 0.701765 0.420400
vt 0.701765 0.700250
vt 0.489649 0.885643
vt 0.204849 0.880916
vt 0.204900 0.884731
vt 0.254193 0.985786
vt 0.362382 0.420400
vt 0.258272 0.989600
vt 0.366409 0.700250
vt 0.363149 0.473697
vt 0.720561 0.017809
vt 0.365689 0.650189
vt 0.916598 0.016420
vt 0.917188 0.099885
vt 0.941199 0.077236
vt 0.721151 0.101272
vt 0.696822 0.078965
vt 0.917029 0.077407
vt 0.720992 0.078794
s 0
f 68/136/48 65/128/48 67/132/48
f 60/118/49 65/129/49 55/113/49
f 62/122/50 72/145/50 61/119/50
f 70/141/51 63/124/51 64/126/51
f 63/124/52 71/143/52 62/122/52
f 66/131/53 64/126/53 65/128/53
f 62/123/54 59/117/54 57/115/54
f 69/138/55 70/140/55 66/130/55
f 66/130/55 71/142/55 69/138/55
f 72/144/56 71/142/56 66/130/56
f 66/130/56 68/135/56 72/144/56
f 64/127/57 58/116/57 56/114/57
f 72/146/58 67/133/58 61/120/58
f 61/121/59 60/118/59 59/117/59
f 58/116/60 62/123/60 57/115/60
f 65/129/61 56/114/61 55/113/61
f 75/150/53 76/152/53 97/205/53
f 76/152/53 77/154/53 99/209/53
f 77/154/53 73/147/53 99/209/53
f 79/158/52 80/159/52 100/210/52
f 90/183/62 87/174/62 77/155/62
f 86/171/63 73/147/63 77/154/63
f 77/154/64 87/173/64 86/171/64
f 88/176/65 79/158/65 78/156/65
f 78/156/66 85/169/66 88/176/66
f 78/156/52 98/208/52 82/163/52
f 97/205/53 73/147/53 74/148/53
f 89/179/67 90/184/67 91/185/67
f 76/153/68 90/183/68 77/155/68
f 88/177/69 84/167/69 79/157/69
f 90/184/52 96/201/52 91/185/52
f 84/168/70 92/187/70 95/199/70
f 96/202/71 105/219/71 94/193/71
f 86/172/72 89/182/72 92/189/72
f 91/186/73 92/190/73 89/180/73
f 96/203/74 95/198/74 91/186/74
f 84/167/75 80/160/75 79/157/75
f 84/168/53 94/195/53 83/165/53
f 82/164/76 97/206/76 74/149/76
f 98/207/77 75/151/77 97/206/77
f 78/156/52 79/158/52 100/210/52
f 100/210/52 102/213/52 98/208/52
f 103/215/78 75/151/78 81/162/78
f 103/215/79 93/192/79 76/153/79
f 104/217/80 80/160/80 94/196/80
f 105/219/81 108/224/81 107/223/81
f 104/218/82 108/224/82 103/216/82
f 104/218/52 105/220/52 107/223/52
f 103/216/53 106/222/53 96/200/53
f 68/136/83 66/131/83 65/128/83
f 60/118/84 67/134/84 65/129/84
f 62/122/85 71/143/85 72/145/85
f 70/141/51 69/139/51 63/124/51
f 63/124/52 69/139/52 71/143/52
f 66/131/53 70/141/53 64/126/53
f 62/123/86 61/121/86 59/117/86
f 64/127/57 63/125/57 58/116/57
f 72/146/58 68/137/58 67/133/58
f 61/121/59 67/134/59 60/118/59
f 58/116/87 63/125/87 62/123/87
f 65/129/88 64/127/88 56/114/88
f 75/150/89 101/211/89 76/152/89
f 76/152/53 99/209/53 97/205/53
f 90/183/69 89/181/69 87/174/69
f 78/156/52 100/210/52 98/208/52
f 97/205/53 99/209/53 73/147/53
f 76/153/68 93/192/68 90/183/68
f 88/177/69 92/188/69 84/167/69
f 90/184/52 93/191/52 96/201/52
f 96/202/71 106/221/71 105/219/71
f 88/178/72 85/170/72 86/172/72
f 86/172/72 87/175/72 89/182/72
f 92/189/72 88/178/72 86/172/72
f 91/186/73 95/198/73 92/190/73
f 96/203/74 94/194/74 95/198/74
f 84/167/75 83/166/75 80/160/75
f 84/168/53 95/199/53 94/195/53
f 82/164/76 98/207/76 97/206/76
f 98/207/77 81/162/77 75/151/77
f 100/210/89 80/159/89 102/213/89
f 102/213/52 81/161/52 98/208/52
f 81/162/90 102/214/90 104/217/90
f 103/215/91 101/212/91 75/151/91
f 81/162/92 104/217/92 103/215/92
f 103/215/53 96/204/53 93/192/53
f 76/153/89 101/212/89 103/215/89
f 104/217/89 102/214/89 80/160/89
f 80/160/93 83/166/93 94/196/93
f 105/219/94 106/221/94 108/224/94
f 104/218/82 107/223/82 108/224/82
f 104/218/52 94/197/52 105/220/52
f 103/216/53 108/224/53 106/222/53
