# Blender 3.5.1
# www.blender.org
o head
v 0.242832 1.488143 -0.242833
v 0.242832 1.500621 -0.255311
v 0.255311 1.500621 -0.242833
v -0.242832 1.488143 -0.242833
v -0.255311 1.500621 -0.242833
v -0.242832 1.500621 -0.255311
v -0.242832 2.011857 -0.242833
v -0.242832 1.999379 -0.255311
v -0.255311 1.999379 -0.242833
v 0.242832 2.011857 -0.242833
v 0.255311 1.999379 -0.242833
v 0.242832 1.999379 -0.255311
v 0.242832 1.488143 0.242832
v 0.255311 1.500621 0.242832
v 0.242832 1.500621 0.255311
v 0.255311 1.999379 0.242832
v 0.242832 2.011857 0.242832
v 0.242832 1.999379 0.255311
v -0.242832 1.488143 0.242832
v -0.242832 1.500621 0.255311
v -0.255311 1.500621 0.242832
v -0.255311 1.999379 0.242832
v -0.242832 1.999379 0.255311
v -0.242832 2.011857 0.242832
v -0.255311 1.673945 -0.242833
v -0.255311 1.792318 -0.242833
v -0.242832 1.673945 -0.255311
v 0.242832 1.673945 -0.255311
v 0.255311 1.792318 -0.242833
v 0.255311 1.673945 -0.242833
v 0.255311 1.673945 0.242832
v 0.255311 1.792318 0.242832
v 0.242832 1.792318 0.255311
v 0.242832 1.673945 0.255311
v -0.242832 1.673945 0.255311
v -0.242832 1.792318 0.255311
v -0.255311 1.792318 0.242832
v -0.255311 1.673945 0.242832
v -0.242832 1.792318 -0.255311
v 0.242832 1.792318 -0.255311
v -0.058818 1.782795 -0.249578
v -0.051046 1.772415 -0.249578
v -0.051046 1.693848 -0.249578
v -0.058818 1.683468 -0.249578
v -0.184014 1.683468 -0.249578
v -0.191786 1.693848 -0.249578
v -0.191786 1.772415 -0.249578
v -0.184014 1.782795 -0.249578
v 0.051046 1.772415 -0.249578
v 0.058818 1.782795 -0.249578
v 0.058818 1.683468 -0.249578
v 0.051046 1.693848 -0.249578
v 0.184014 1.782795 -0.249578
v 0.191786 1.772415 -0.249578
v 0.191786 1.693848 -0.249578
v 0.184014 1.683468 -0.249578
v 0.191786 1.693848 -0.255311
v 0.184014 1.683468 -0.255311
v 0.191786 1.772415 -0.255311
v 0.184014 1.782795 -0.255311
v 0.051046 1.693848 -0.255311
v 0.058818 1.683468 -0.255311
v 0.051046 1.772415 -0.255311
v 0.058818 1.782795 -0.255311
v -0.191786 1.772415 -0.255311
v -0.184014 1.782795 -0.255311
v -0.191786 1.693848 -0.255311
v -0.184014 1.683468 -0.255311
v -0.058818 1.683468 -0.255311
v -0.051046 1.693848 -0.255311
v -0.051046 1.772415 -0.255311
v -0.058818 1.782795 -0.255311
vn 1.0000 -0.0000 -0.0000
vn -1.0000 -0.0000 -0.0000
vn -0.0000 1.0000 -0.0000
vn 0.5773 -0.5773 -0.5774
vn -0.5773 -0.5773 -0.5774
vn -0.5773 0.5773 -0.5774
vn 0.5773 0.5773 -0.5774
vn 0.5773 -0.5773 0.5774
vn 0.5773 0.5773 0.5774
vn -0.5773 -0.5773 0.5774
vn -0.5773 0.5773 0.5774
vn -0.0000 -0.0000 1.0000
vn -0.0000 0.7071 -0.7071
vn -0.7071 -0.0000 -0.7071
vn 0.7071 -0.0000 -0.7071
vn 0.7071 -0.7071 -0.0000
vn 0.7071 -0.0000 0.7071
vn -0.0000 -0.7071 -0.7071
vn -0.7071 -0.0000 0.7071
vn -0.0000 -0.7071 0.7071
vn 0.7071 0.7071 -0.0000
vn -0.7071 0.7071 -0.0000
vn -0.7071 -0.7071 -0.0000
vn -0.0000 0.7071 0.7071
vn -0.0000 -1.0000 -0.0000
vn -0.0000 -0.0000 -1.0000
vn 0.8005 0.5994 -0.0000
vn 0.8005 -0.5994 -0.0000
vn -0.8005 0.5994 -0.0000
vn -0.8005 -0.5994 -0.0000
vn 0.0013 0.0029 -1.0000
vn -0.0000 0.0032 -1.0000
vn -0.0019 0.0026 -1.0000
vn -0.0007 0.0031 -1.0000
vn 0.0030 0.0011 -1.0000
vt 0.637841 0.619067
vt 0.633128 0.608096
vt 0.642933 0.608026
vt 0.342206 0.622829
vt 0.336718 0.611931
vt 0.346555 0.611293
vt 0.335374 0.306831
vt 0.340202 0.318049
vt 0.330224 0.318174
vt 0.634589 0.307293
vt 0.639953 0.318248
vt 0.630099 0.318813
vt 0.931357 0.615521
vt 0.969606 0.640211
vt 0.641602 0.914703
vt 0.930147 0.605773
vt 0.941353 0.608648
vt 0.969606 0.650899
vt 0.933608 0.318440
vt 0.969606 0.963662
vt 0.635051 0.008077
vt 0.934878 0.308176
vt 0.944748 0.315471
vt 0.969606 0.952974
vt 0.675460 0.640211
vt 0.039283 0.622411
vt 0.345967 0.918464
vt 0.029115 0.615112
vt 0.675460 0.650899
vt 0.040430 0.611986
vt 0.035404 0.320284
vt 0.024169 0.317372
vt 0.675460 0.952974
vt 0.335835 0.007616
vt 0.034142 0.310403
vt 0.675460 0.963662
vt 0.330205 0.467378
vt 0.329672 0.395537
vt 0.341110 0.467081
vt 0.632996 0.463668
vt 0.644190 0.394366
vt 0.643718 0.463826
vt 0.947595 0.459882
vt 0.947443 0.390305
vt 0.959666 0.389587
vt 0.969606 0.849390
vt 0.959638 0.460548
vt 0.969606 0.777697
vt 0.009540 0.470525
vt 0.675460 0.777697
vt 0.009540 0.396903
vt 0.675460 0.849390
vt 0.022115 0.396903
vt 0.022115 0.470525
vt 0.340652 0.395573
vt 0.633482 0.394564
vt 0.446635 0.404222
vt 0.451207 0.408765
vt 0.452030 0.451911
vt 0.447594 0.457227
vt 0.379581 0.457506
vt 0.375114 0.452920
vt 0.374919 0.409405
vt 0.379520 0.403993
vt 0.525839 0.408913
vt 0.530069 0.403344
vt 0.529600 0.456237
vt 0.525308 0.451419
vt 0.595730 0.403663
vt 0.600269 0.408265
vt 0.600266 0.450909
vt 0.595909 0.455704
vt 0.603466 0.452166
vt 0.597792 0.458759
vt 0.603126 0.406957
vt 0.597582 0.400109
vt 0.522045 0.453113
vt 0.528174 0.459532
vt 0.522143 0.407165
vt 0.528534 0.400553
vt 0.371551 0.408039
vt 0.377469 0.400894
vt 0.372206 0.454230
vt 0.377741 0.461147
vt 0.449131 0.460141
vt 0.455765 0.453651
vt 0.454118 0.407403
vt 0.448419 0.400610
s 0
f 29/41/1 16/19/1 32/44/1
f 26/38/2 22/31/2 9/9/2
f 17/21/3 7/7/3 24/34/3
f 1/1/4 2/2/4 3/3/4
f 4/4/5 5/5/5 6/6/5
f 7/7/6 8/8/6 9/9/6
f 10/10/7 11/11/7 12/12/7
f 13/13/8 14/16/8 15/17/8
f 16/19/9 17/22/9 18/23/9
f 19/26/10 20/28/10 21/30/10
f 22/31/11 23/32/11 24/35/11
f 33/46/12 23/33/12 36/52/12
f 10/10/13 8/8/13 7/7/13
f 9/9/14 39/55/14 26/38/14
f 12/12/15 29/41/15 40/56/15
f 14/16/16 1/1/16 3/3/16
f 16/19/17 33/45/17 32/44/17
f 4/4/18 2/2/18 1/1/18
f 23/32/19 37/53/19 36/51/19
f 20/29/20 13/14/20 15/18/20
f 17/22/21 11/11/21 10/10/21
f 22/31/22 7/7/22 9/9/22
f 19/26/23 5/5/23 4/4/23
f 24/36/24 18/24/24 17/20/24
f 35/49/19 21/30/19 20/28/19
f 36/51/19 38/54/19 35/49/19
f 31/43/17 15/17/17 14/16/17
f 32/44/17 34/47/17 31/43/17
f 28/40/15 3/3/15 2/2/15
f 40/56/15 30/42/15 28/40/15
f 25/37/14 6/6/14 5/5/14
f 26/38/14 27/39/14 25/37/14
f 1/1/25 19/27/25 4/4/25
f 15/18/12 35/50/12 20/29/12
f 21/30/2 25/37/2 5/5/2
f 25/37/2 37/53/2 26/38/2
f 3/3/1 31/43/1 14/16/1
f 30/42/1 32/44/1 31/43/1
f 65/81/1 46/62/1 67/83/1
f 72/88/25 48/64/25 66/82/25
f 28/40/26 58/74/26 57/73/26
f 62/78/3 56/72/3 58/74/3
f 63/79/1 52/68/1 61/77/1
f 62/78/26 70/86/26 61/77/26
f 68/84/3 44/60/3 69/85/3
f 39/55/26 66/82/26 65/81/26
f 57/73/2 54/70/2 59/75/2
f 61/77/26 71/87/26 63/79/26
f 64/80/26 72/88/26 39/55/26
f 60/76/25 50/66/25 64/80/25
f 34/48/12 36/52/12 35/50/12
f 69/85/26 28/40/26 68/84/26
f 62/78/27 52/68/27 51/67/27
f 50/66/28 63/79/28 64/80/28
f 44/60/29 70/86/29 69/85/29
f 54/70/30 60/76/30 59/75/30
f 68/84/27 46/62/27 45/61/27
f 47/63/28 66/82/28 48/64/28
f 42/58/30 72/88/30 71/87/30
f 55/71/29 58/74/29 56/72/29
f 70/86/2 42/58/2 71/87/2
f 28/40/31 6/6/32 27/39/32
f 39/55/26 12/12/26 40/56/26
f 63/79/26 72/88/26 64/80/26
f 60/76/26 40/56/26 59/75/26
f 28/40/26 59/75/26 40/56/26
f 68/84/26 27/39/26 67/83/26
f 39/55/26 67/83/26 27/39/26
f 29/41/1 11/11/1 16/19/1
f 26/38/2 37/53/2 22/31/2
f 17/21/3 10/10/3 7/7/3
f 33/46/12 18/24/12 23/33/12
f 10/10/13 12/12/13 8/8/13
f 9/9/14 8/8/14 39/55/14
f 12/12/15 11/11/15 29/41/15
f 14/16/16 13/13/16 1/1/16
f 16/19/17 18/23/17 33/45/17
f 4/4/18 6/6/18 2/2/18
f 23/32/19 22/31/19 37/53/19
f 20/29/20 19/25/20 13/14/20
f 17/22/21 16/19/21 11/11/21
f 22/31/22 24/35/22 7/7/22
f 19/26/23 21/30/23 5/5/23
f 24/36/24 23/33/24 18/24/24
f 35/49/19 38/54/19 21/30/19
f 36/51/19 37/53/19 38/54/19
f 31/43/17 34/47/17 15/17/17
f 32/44/17 33/45/17 34/47/17
f 28/40/15 30/42/15 3/3/15
f 40/56/15 29/41/15 30/42/15
f 25/37/14 27/39/14 6/6/14
f 26/38/14 39/55/14 27/39/14
f 1/1/25 13/15/25 19/27/25
f 15/18/12 34/48/12 35/50/12
f 21/30/2 38/54/2 25/37/2
f 25/37/2 38/54/2 37/53/2
f 3/3/1 30/42/1 31/43/1
f 30/42/1 29/41/1 32/44/1
f 65/81/1 47/63/1 46/62/1
f 72/88/25 41/57/25 48/64/25
f 62/78/3 51/67/3 56/72/3
f 63/79/1 49/65/1 52/68/1
f 62/78/26 69/85/26 70/86/26
f 68/84/3 45/61/3 44/60/3
f 57/73/2 55/71/2 54/70/2
f 61/77/26 70/86/26 71/87/26
f 39/55/26 40/56/26 60/76/26
f 39/55/26 60/76/26 64/80/26
f 72/88/26 66/82/26 39/55/26
f 60/76/25 53/69/25 50/66/25
f 34/48/12 33/46/12 36/52/12
f 62/78/26 58/74/26 28/40/26
f 28/40/26 27/39/33 68/84/26
f 69/85/26 62/78/26 28/40/26
f 62/78/27 61/77/27 52/68/27
f 50/66/28 49/65/28 63/79/28
f 44/60/29 43/59/29 70/86/29
f 54/70/30 53/69/30 60/76/30
f 68/84/27 67/83/27 46/62/27
f 47/63/28 65/81/28 66/82/28
f 42/58/30 41/57/30 72/88/30
f 55/71/29 57/73/29 58/74/29
f 70/86/2 43/59/2 42/58/2
f 28/40/34 2/2/32 6/6/35
f 39/55/26 8/8/26 12/12/26
f 63/79/26 71/87/26 72/88/26
f 28/40/26 57/73/26 59/75/26
f 39/55/26 65/81/26 67/83/26
