# Blender 3.1.0
# www.blender.org
o right_foot
v 0.251839 0.175898 0.125823
v 0.257575 0.173847 -0.131372
v 0.252121 0.179510 -0.126202
v -0.008151 0.142777 -0.121307
v 0.258263 0.142777 0.125823
v -0.008151 0.142777 0.125823
v -0.013605 0.148440 0.130993
v -0.013605 0.148440 -0.126477
v 0.258396 0.346576 0.128887
v -0.008151 0.178468 0.125823
v -0.011954 0.172394 -0.129772
v -0.013605 0.172805 0.130993
v 0.258915 0.348306 -0.129772
v 0.257293 0.170235 0.130993
v 0.262987 0.148673 -0.131457
v 0.263717 0.148440 0.130993
v 0.257533 0.143010 -0.126287
v -0.006500 0.178057 -0.124603
v -0.011154 0.347681 -0.128739
v -0.012437 0.347892 0.128887
vn 0.7223 0.6915 0.0106
vn 0.7182 0.6957 0.0105
vn 0.7251 0.6886 0.0107
vn 0.0004 -1.0000 -0.0004
vn 0.0004 -1.0000 -0.0005
vn -0.0000 -1.0000 -0.0000
vn -0.0000 -0.6742 0.7385
vn -0.7203 -0.6937 -0.0000
vn -0.0001 -0.0180 0.9998
vn -0.0002 -0.0179 0.9998
vn -0.7191 0.6949 -0.0059
vn -0.7213 0.6926 -0.0058
vn -0.7228 0.6910 -0.0057
vn 0.9992 -0.0402 0.0017
vn 0.9777 0.2102 0.0039
vn -0.0000 -0.0000 1.0000
vn -1.0000 -0.0000 -0.0000
vn -0.0180 -0.0005 -0.9998
vn 0.0065 0.6727 0.7399
vn 0.0064 0.6756 0.7372
vn 0.0064 0.6776 0.7354
vn -0.0128 -0.6674 -0.7446
vn 0.7197 -0.6942 -0.0027
vn 0.7207 -0.6932 -0.0026
vn 0.7215 -0.6924 -0.0026
vn -0.0083 0.6761 -0.7368
vn -0.0081 0.6724 -0.7401
vn -0.0084 0.6785 -0.7345
vn -0.0041 -0.0214 -0.9998
vn -0.0057 -0.0240 -0.9997
vn -0.0060 -0.0245 -0.9997
vn -0.9996 -0.0272 -0.0051
vn -0.9997 -0.0255 -0.0063
vn -0.9997 -0.0252 -0.0065
vn 0.7155 0.6986 0.0104
vn 0.0009 -1.0000 -0.0009
vn -0.0001 -0.0181 0.9998
vn -0.7176 0.6965 -0.0059
vn 0.9993 -0.0384 0.0006
vn 0.9592 0.2827 -0.0024
vn -0.9977 0.0679 -0.0064
vn -0.0051 -0.1359 -0.9907
vn 0.0066 0.6707 0.7417
vn -0.0131 -0.6810 -0.7321
vn 0.7190 -0.6950 -0.0027
vn -0.0080 0.6700 -0.7423
vn -0.0038 -0.0210 -0.9998
vn -0.9996 -0.0275 -0.0050
vn 0.0012 1.0000 0.0031
vn 0.0014 1.0000 0.0028
vn 0.0049 1.0000 -0.0008
vn -0.0023 1.0000 0.0067
vt 0.674814 0.624129
vt 0.842432 0.194554
vt 0.676399 0.805092
vt 0.408461 0.013584
vt 0.672437 0.801456
vt 0.404617 0.017428
vt 0.311890 0.800073
vt 0.206349 0.991189
vt 0.430375 0.200776
vt 0.019209 0.817595
vt 0.865691 0.199066
vt 0.698060 0.624135
vt 0.206349 0.817595
vt 0.865690 0.011926
vt 0.311555 0.626479
vt 0.315735 0.622832
vt 0.861625 0.008095
vt 0.316084 0.803689
vt 0.426268 0.204595
vt 0.554905 0.621982
vt 0.722524 0.199160
vt 0.405001 0.611556
vt 0.364967 0.627329
vt 0.840627 0.011926
vt 0.361159 0.806850
vt 0.332823 0.805976
vt 0.409369 0.203429
vt 0.361159 0.623674
vt 0.332823 0.622801
vt 0.844516 0.008095
vt 0.553687 0.803675
vt 0.285882 0.013177
vt 0.678776 0.620502
vt 0.846321 0.198385
vt 0.426130 0.009780
vt 0.694066 0.805157
vt 0.861626 0.202898
vt 0.694066 0.620508
vt 0.019209 0.994981
vt 0.430237 0.013624
vt 0.698060 0.801521
vt 0.405526 0.199611
vt 0.365013 0.803243
vt 0.405368 0.435645
vt 0.286347 0.202886
vt 0.286222 0.432722
vt 0.286009 0.613691
vt 0.721599 0.008916
s 1
f 1/1/1 2/3/2 3/5/3
f 4/8/4 5/10/5 6/13/6
f 5/11/7 7/17/7 6/14/7
f 6/15/8 8/18/8 4/7/8
f 9/21/9 10/24/9 1/2/10
f 10/23/11 11/25/12 12/28/13
f 9/20/14 3/5/14 13/31/14
f 14/33/15 15/36/15 2/3/15
f 14/34/16 7/17/16 16/37/16
f 12/29/17 8/18/17 7/16/17
f 8/19/18 2/4/18 15/35/18
f 1/2/19 12/30/20 14/34/21
f 17/40/22 8/19/22 15/35/22
f 5/12/23 15/36/24 16/38/25
f 3/6/26 11/27/27 18/42/28
f 19/45/29 3/6/30 18/42/31
f 20/47/32 18/44/33 10/22/34
f 1/1/1 14/33/35 2/3/2
f 4/8/4 17/39/36 5/10/5
f 5/11/7 16/37/7 7/17/7
f 6/15/8 7/16/8 8/18/8
f 9/21/9 20/48/37 10/24/9
f 10/23/11 18/43/38 11/25/12
f 9/20/39 1/1/39 3/5/39
f 14/33/40 16/38/40 15/36/40
f 14/34/16 12/30/16 7/17/16
f 12/29/41 11/26/41 8/18/41
f 8/19/42 11/27/42 2/4/42
f 1/2/19 10/24/43 12/30/20
f 17/40/44 4/9/44 8/19/44
f 5/12/23 17/41/45 15/36/24
f 3/6/26 2/4/46 11/27/27
f 19/45/29 13/32/47 3/6/30
f 20/47/32 19/46/48 18/44/33
f 9/21/49 19/46/50 20/48/51
f 9/21/49 13/32/52 19/46/50
o left_foot
v -0.253275 0.143166 -0.119159
v 0.007187 0.142777 0.125823
v -0.256940 0.142777 0.125823
v -0.262348 0.148440 0.130993
v -0.258682 0.148829 -0.124328
v 0.006713 0.175803 -0.121040
v 0.013949 0.173485 0.131072
v 0.012120 0.170140 -0.126210
v -0.253275 0.178856 -0.119159
v -0.262348 0.177088 0.130993
v -0.256940 0.182750 0.125823
v 0.010772 0.346527 -0.126914
v -0.258454 0.348091 -0.125951
v -0.260331 0.350086 0.128887
v 0.012193 0.348240 0.128928
v 0.008541 0.179148 0.125902
v 0.012595 0.148440 0.130993
v -0.258682 0.173193 -0.124328
v 0.012120 0.145776 -0.126210
v 0.006713 0.140113 -0.121040
vn -0.0000 -1.0000 -0.0016
vn -0.0000 -0.6742 0.7385
vn -0.7178 -0.6962 -0.0118
vn 0.7167 0.6972 -0.0142
vn -0.7328 0.6801 -0.0218
vn -0.0038 -0.0402 -0.9992
vn -0.9998 -0.0201 -0.0072
vn -0.0004 -0.0180 0.9998
vn -0.0004 -0.0182 0.9998
vn -0.0005 -0.0179 0.9998
vn -0.0002 -0.0022 1.0000
vn -0.0001 -0.0009 1.0000
vn -0.0003 -0.0031 1.0000
vn -0.9999 -0.0000 -0.0144
vn -0.0069 -0.0000 -1.0000
vn 0.9985 -0.0540 -0.0064
vn 0.0088 0.6722 0.7403
vn 0.0087 0.6761 0.7368
vn 0.0086 0.6787 0.7344
vn 0.0025 0.6737 -0.7390
vn 0.0025 0.6747 -0.7380
vn 0.0025 0.6728 -0.7398
vn 0.7244 -0.6893 0.0060
vn 0.7221 -0.6918 0.0059
vn 0.7205 -0.6934 0.0059
vn -0.0132 -0.6673 -0.7447
vn 0.9997 -0.0237 -0.0069
vn 0.9997 -0.0217 -0.0056
vn 0.9998 -0.0215 -0.0054
vn -0.0117 -0.9999 0.0108
vn -0.7284 -0.6851 -0.0115
vn 0.7298 0.6835 -0.0147
vn -0.7135 0.7003 -0.0209
vn -0.0076 -0.0342 -0.9994
vn -0.9994 -0.0312 -0.0145
vn -0.0003 -0.0183 0.9998
vn -0.0000 -0.0000 1.0000
vn 1.0000 -0.0000 -0.0018
vn 0.0089 0.6696 0.7426
vn 0.0025 0.6755 -0.7373
vn 0.7260 -0.6877 0.0060
vn -0.0128 -0.6807 -0.7324
vn 0.9997 -0.0240 -0.0071
vn 0.0063 1.0000 -0.0073
vn 0.0063 1.0000 -0.0072
vn 0.0049 1.0000 -0.0081
vn 0.0068 0.9999 -0.0078
vt 0.288059 0.633344
vt 0.218834 0.818949
vt 0.867312 0.406247
vt 0.401793 0.991034
vt 0.430635 0.411658
vt 0.848287 0.422215
vt 0.216259 0.991034
vt 0.430634 0.226124
vt 0.288237 0.805439
vt 0.426568 0.222326
vt 0.284122 0.809085
vt 0.283944 0.629728
vt 0.863225 0.410040
vt 0.601887 0.207601
vt 0.844085 0.223654
vt 0.415217 0.428926
vt 0.826509 0.418224
vt 0.408981 0.416408
vt 0.779010 0.211429
vt 0.598278 0.211429
vt 0.826509 0.598968
vt 0.847939 0.219838
vt 0.842254 0.406286
vt 0.263006 0.633340
vt 0.264012 0.809082
vt 0.406451 0.222326
vt 0.260177 0.805435
vt 0.402563 0.226124
vt 0.724087 0.220979
vt 0.535125 0.426459
vt 0.723290 0.410097
vt 0.144075 0.628566
vt 0.142626 0.807579
vt 0.285003 0.223743
vt 0.286299 0.415175
vt 0.533876 0.606176
vt 0.775356 0.207652
vt 0.405093 0.412609
vt 0.415217 0.602408
vt 0.426570 0.415457
vt 0.844125 0.418515
vt 0.266841 0.629725
vt 0.846119 0.410067
vt 0.843588 0.599194
vt 0.865045 0.219811
vt 0.869143 0.223614
vt 0.401464 0.817631
vt 0.847848 0.595632
s 1
f 21/50/53 22/52/53 23/55/53
f 22/53/54 24/58/54 23/56/54
f 23/57/55 25/60/55 21/49/55
f 26/62/56 27/67/56 28/68/56
f 29/72/57 30/73/57 31/75/57
f 32/77/58 29/71/58 33/79/58
f 33/80/59 31/75/59 34/81/59
f 35/83/60 31/76/61 36/86/62
f 30/74/63 37/88/64 27/66/65
f 38/90/66 24/59/66 30/73/66
f 28/70/67 25/61/67 38/91/67
f 37/89/68 28/69/68 27/65/68
f 36/86/69 30/74/70 27/66/71
f 26/63/72 38/91/73 29/71/74
f 22/54/75 39/92/76 37/89/77
f 21/51/78 39/93/78 40/94/78
f 36/87/79 32/78/80 35/84/81
f 21/50/82 40/95/82 22/52/82
f 22/53/54 37/88/54 24/58/54
f 23/57/83 24/59/83 25/60/83
f 26/62/84 36/85/84 27/67/84
f 29/72/85 38/90/85 30/73/85
f 32/77/86 26/63/86 29/71/86
f 33/80/87 29/72/87 31/75/87
f 35/83/60 34/82/88 31/76/61
f 30/74/63 24/58/89 37/88/64
f 38/90/66 25/60/66 24/59/66
f 28/70/67 39/93/67 25/61/67
f 37/89/90 39/92/90 28/69/90
f 36/86/69 31/76/91 30/74/70
f 26/63/72 28/70/92 38/91/73
f 22/54/75 40/96/93 39/92/76
f 21/51/94 25/61/94 39/93/94
f 36/87/79 26/64/95 32/78/80
f 33/80/96 35/84/97 32/78/98
f 33/80/96 34/82/99 35/84/97
o right_legs
v 0.252605 0.517317 0.125824
v 0.270403 0.545933 -0.132642
v 0.270403 0.545933 0.131761
v -0.018096 0.545933 0.131761
v -0.007970 0.517317 0.125824
v -0.011154 0.347681 -0.128739
v -0.012437 0.347892 0.128887
v 0.252605 0.517317 -0.126704
v 0.258915 0.348306 -0.129772
v -0.012903 0.776994 0.125770
v -0.018096 0.545933 -0.132641
v -0.007970 0.517317 -0.126704
v 0.259954 0.618079 0.129622
v 0.285530 0.572309 -0.000437
v 0.267052 0.610948 0.137205
v 0.267052 0.612156 -0.138080
v 0.270115 0.776994 0.125824
v 0.259954 0.619288 -0.130503
v 0.265420 0.579441 -0.000440
v 0.270115 0.776994 -0.126704
v -0.013262 0.776994 -0.126704
v 0.258396 0.346576 0.128887
vn 0.8492 -0.5281 -0.0000
vn -0.0000 -0.2031 0.9791
vn -0.9998 0.0197 -0.0005
vn -0.9997 0.0255 -0.0044
vn -0.9996 0.0263 -0.0050
vn -0.0039 0.0180 -0.9998
vn -1.0000 0.0075 0.0003
vn -0.9990 0.0402 0.0198
vn -0.9988 0.0490 -0.0007
vn -0.9427 -0.3336 -0.0000
vn -0.0000 -0.2031 -0.9791
vn -0.0000 -0.2032 -0.9791
vn -0.7494 -0.6568 0.0838
vn 0.9047 0.4260 0.0019
vn 0.9998 -0.0185 -0.0000
vn 0.9998 -0.0185 -0.0001
vn 0.9998 -0.0184 -0.0001
vn -0.3223 -0.9088 -0.2649
vn -0.0000 1.0000 -0.0000
vn 0.9993 0.0373 -0.0000
vn 0.0001 0.0180 0.9998
vn -0.0000 0.0180 0.9998
vn 0.0001 0.0179 0.9998
vn 0.0008 0.0265 0.9996
vn 0.0002 0.0269 0.9996
vn 0.0004 0.0249 0.9997
vn -0.0002 0.0239 0.9997
vn -0.6985 0.0622 -0.7129
vn 0.0008 0.0262 -0.9997
vn 0.0002 0.0267 -0.9996
vn -0.0000 0.0291 -0.9996
vn 0.9893 0.1462 -0.0003
vn 0.9893 0.1457 0.0004
vn 0.9898 0.1424 0.0003
vn -0.6991 0.0617 0.7124
vn 0.0006 0.0251 -0.9997
vn -0.0000 0.0241 -0.9997
vn -0.9998 0.0188 -0.0000
vn -0.0000 0.0120 -0.9999
vn -0.9999 0.0108 -0.0098
vn -1.0000 0.0059 0.0010
vn -0.9989 0.0474 0.0021
vn -0.3231 -0.9108 0.2570
vn 0.9998 -0.0186 -0.0000
vn -0.7514 -0.6539 -0.0884
vn 0.9994 0.0339 0.0022
vn -0.0000 0.0181 0.9998
vn -0.0000 0.0296 0.9996
vn 0.9900 0.1410 0.0016
vn 0.9897 0.1433 -0.0010
vn -0.0012 -1.0000 -0.0031
vn -0.0040 -1.0000 0.0010
vn 0.0023 -1.0000 -0.0067
vn -0.0049 -1.0000 0.0008
vt 0.434986 0.624129
vt 0.602675 0.195092
vt 0.414834 0.805700
vt 0.147080 0.005118
vt 0.895120 0.510777
vt 0.414834 0.619973
vt 0.582480 0.207595
vt 0.895120 0.696504
vt 0.146894 0.615690
vt 0.582479 0.004941
vt 0.167364 0.611508
vt 0.602674 0.012054
vt 0.286347 0.202886
vt 0.286222 0.432722
vt 0.286009 0.613691
vt 0.721599 0.008916
vt 0.434986 0.801515
vt 0.167318 0.017632
vt 0.285882 0.013177
vt 0.553687 0.803675
vt 0.440217 0.008590
vt 0.004921 0.611445
vt 0.707935 0.819632
vt 0.146909 0.429963
vt 0.147080 0.207770
vt 0.167378 0.434122
vt 0.167318 0.200669
vt 0.858094 0.602839
vt 0.531852 0.200256
vt 0.945768 0.695011
vt 0.994388 0.096395
vt 0.866887 0.511554
vt 0.863080 0.602839
vt 0.967263 0.005029
vt 0.531852 0.205241
vt 0.095640 0.007484
vt 0.966414 0.187752
vt 0.863080 0.420114
vt 0.440217 0.207393
vt 0.875529 0.007700
vt 0.707898 0.620828
vt 0.858094 0.420114
vt 0.095641 0.012469
vt 0.946617 0.512288
vt 0.861934 0.511554
vt 0.918643 0.603645
vt 0.004920 0.005353
vt 0.875529 0.185086
vt 0.885284 0.620828
vt 0.885284 0.819884
vt 0.004921 0.434097
vt 0.004920 0.204408
vt 0.722524 0.199160
vt 0.554905 0.621982
s 1
f 41/97/100 42/99/100 43/102/100
f 44/106/101 41/98/101 43/103/101
f 45/107/102 46/110/103 47/111/104
f 46/109/105 48/114/105 49/115/105
f 50/118/106 51/120/107 44/105/108
f 45/107/109 51/120/109 52/122/109
f 51/121/110 48/114/111 52/123/110
f 53/124/112 54/128/112 55/129/112
f 55/130/113 54/127/113 56/133/113
f 56/133/114 57/136/115 55/130/116
f 58/138/117 54/128/117 59/141/117
f 50/119/118 60/145/118 61/146/118
f 41/97/119 49/116/119 48/113/119
f 41/98/120 47/112/121 62/149/122
f 44/106/123 53/125/124 50/117/125
f 57/135/126 50/117/125 53/125/124
f 60/143/127 56/132/127 58/139/127
f 51/121/128 58/139/129 42/100/130
f 43/104/131 42/101/132 59/142/133
f 55/131/134 57/135/134 53/125/134
f 61/148/135 60/143/136 58/139/129
f 41/97/100 48/113/100 42/99/100
f 44/106/101 45/108/101 41/98/101
f 45/107/102 52/122/137 46/110/103
f 46/109/138 52/123/138 48/114/138
f 50/118/139 61/147/140 51/120/141
f 45/107/109 44/105/109 51/120/109
f 51/121/110 42/100/111 48/114/111
f 53/124/142 59/141/142 54/128/142
f 56/133/114 60/144/143 57/136/115
f 58/138/144 56/134/144 54/128/144
f 50/119/118 57/137/118 60/145/118
f 41/97/145 62/150/145 49/116/145
f 41/98/120 45/108/146 47/112/121
f 44/106/123 43/103/147 53/125/124
f 51/121/128 61/148/135 58/139/129
f 42/101/132 58/140/148 59/142/133
f 59/142/133 53/126/149 43/104/131
f 62/150/150 46/110/151 49/116/152
f 62/150/150 47/112/153 46/110/151
o left_legs
v 0.017079 0.545933 0.131761
v -0.251307 0.517317 0.125824
v 0.007032 0.517317 0.125824
v -0.251307 0.517317 -0.126704
v -0.269026 0.545933 0.131761
v -0.269026 0.545933 -0.132641
v 0.016084 0.545933 -0.133085
v 0.010772 0.346527 -0.126914
v 0.012193 0.348240 0.128928
v 0.011354 0.776426 -0.127337
v 0.011587 0.776994 0.125929
v -0.268790 0.776994 -0.126704
v 0.007032 0.517317 -0.126704
v -0.258631 0.619288 -0.130503
v -0.283924 0.572309 -0.000812
v -0.265725 0.612156 -0.138079
v -0.265725 0.610948 0.137205
v -0.268790 0.776994 0.125824
v -0.258631 0.618079 0.129622
v -0.263796 0.579441 -0.000794
v -0.258454 0.348091 -0.125951
v -0.260331 0.350086 0.128887
vn -0.0000 -0.2031 0.9791
vn -0.8502 -0.5264 -0.0000
vn -0.0011 -0.2077 -0.9782
vn -0.0004 -0.2138 -0.9769
vn -0.0015 -0.2041 -0.9790
vn 0.9995 0.0304 -0.0058
vn 0.9987 0.0503 -0.0016
vn 0.9999 0.0137 0.0103
vn 1.0000 0.0087 -0.0006
vn 0.0009 1.0000 -0.0010
vn 0.0011 1.0000 -0.0012
vn 0.0020 1.0000 -0.0022
vn 0.9435 -0.3313 -0.0000
vn 0.7522 -0.6528 -0.0898
vn -0.9072 0.4207 0.0018
vn -0.9998 -0.0185 -0.0001
vn -0.9998 -0.0185 -0.0000
vn 0.6975 0.0609 -0.7140
vn 0.6972 0.0617 -0.7142
vn 0.6972 0.0622 -0.7142
vn 0.3226 -0.9110 0.2571
vn -0.0000 0.0184 0.9998
vn -0.9986 0.0524 -0.0069
vn -0.9991 0.0434 -0.0009
vn -0.9991 0.0422 -0.0000
vn -0.0004 0.0006 -1.0000
vn -0.0032 -0.0037 -1.0000
vn -0.0036 -0.0043 -1.0000
vn 0.6993 0.0617 0.7122
vn -0.0021 0.0265 -0.9996
vn -0.0024 0.0262 -0.9997
vn -0.0016 0.0294 -0.9996
vn -0.0009 0.0263 0.9997
vn -0.0004 0.0264 0.9997
vn -0.0000 0.0296 0.9996
vn -0.9885 0.1515 -0.0007
vn -0.9894 0.1452 -0.0023
vn -0.9880 0.1542 -0.0000
vn -0.0009 0.0248 0.9997
vn -0.0004 0.0239 0.9997
vn -0.0027 0.0249 -0.9997
vn -0.0022 0.0239 -0.9997
vn -0.0000 -0.2176 -0.9760
vn 0.9998 0.0219 -0.0000
vn 0.9990 0.0382 -0.0236
vn 0.9989 0.0471 -0.0031
vn 1.0000 0.0056 -0.0041
vn -0.0000 1.0000 -0.0000
vn 0.9532 -0.3023 -0.0036
vn 0.3221 -0.9085 -0.2663
vn -0.9998 -0.0186 -0.0000
vn 0.7500 -0.6560 0.0848
vn -0.0000 0.0183 0.9998
vn -0.9985 0.0537 -0.0078
vn -0.0000 0.0012 -1.0000
vn -0.9898 0.1425 -0.0030
vn -0.9901 0.1402 0.0036
vn -0.0063 -1.0000 0.0072
vn -0.0104 -0.9999 0.0132
vn -0.0029 -1.0000 0.0085
vn -0.0068 -0.9999 0.0078
vt 0.672639 0.610088
vt 0.147425 0.418609
vt 0.167620 0.230082
vt 0.025470 0.805382
vt 0.167622 0.411550
vt 0.652191 0.605610
vt 0.025470 0.627998
vt 0.604455 0.405263
vt 0.147423 0.217636
vt 0.004923 0.809601
vt 0.994653 0.749627
vt 0.004923 0.623876
vt 0.584250 0.417728
vt 0.994653 0.563902
vt 0.675197 0.424066
vt 0.583944 0.217455
vt 0.535125 0.426459
vt 0.724087 0.220979
vt 0.533876 0.606176
vt 0.286299 0.415175
vt 0.438682 0.811701
vt 0.816634 0.430038
vt 0.442146 0.221014
vt 0.814554 0.607930
vt 0.438682 0.989606
vt 0.005163 0.414751
vt 0.442052 0.417800
vt 0.635468 0.811965
vt 0.994860 0.499923
vt 0.654672 0.428243
vt 0.604187 0.223796
vt 0.351189 0.622789
vt 0.532786 0.410512
vt 0.943430 0.565366
vt 0.876128 0.411455
vt 0.342651 0.713950
vt 0.346206 0.622789
vt 0.532793 0.415496
vt 0.903966 0.502587
vt 0.903117 0.319865
vt 0.096796 0.219955
vt 0.346206 0.805513
vt 0.005163 0.217802
vt 0.635630 0.989351
vt 0.994860 0.322539
vt 0.351189 0.805513
vt 0.096796 0.224938
vt 0.944279 0.748087
vt 0.347616 0.713950
vt 0.971267 0.656497
vt 0.723290 0.410097
vt 0.144075 0.628566
vt 0.142626 0.807579
vt 0.285003 0.223743
s 1
f 63/152/154 64/153/154 65/155/154
f 66/157/155 67/160/155 68/162/155
f 69/166/156 66/158/157 68/163/158
f 70/167/159 65/156/159 71/169/159
f 63/151/160 72/172/161 73/174/162
f 74/178/163 73/175/164 72/171/165
f 75/180/166 63/151/166 65/156/166
f 76/182/167 77/186/167 78/187/167
f 78/189/168 77/185/168 79/190/168
f 80/195/169 78/189/170 79/190/169
f 76/183/171 78/188/172 74/177/173
f 81/196/174 77/186/174 82/199/174
f 64/153/175 71/170/175 65/155/175
f 83/202/176 64/154/177 66/157/178
f 66/158/179 70/168/180 83/201/181
f 80/193/182 79/191/182 81/197/182
f 76/183/183 69/166/184 68/163/185
f 63/152/186 81/197/187 67/159/188
f 67/161/189 82/200/190 68/164/191
f 73/176/192 80/193/193 81/197/187
f 72/173/194 76/183/183 74/177/195
f 63/152/154 67/159/154 64/153/154
f 66/157/155 64/154/155 67/160/155
f 69/166/156 75/181/196 66/158/157
f 70/167/197 75/180/197 65/156/197
f 63/151/198 69/165/199 72/172/200
f 74/178/163 80/194/201 73/175/164
f 75/180/202 69/165/202 63/151/202
f 76/182/203 82/199/203 77/186/203
f 80/195/169 74/179/204 78/189/170
f 81/196/205 79/192/205 77/186/205
f 64/153/206 84/204/206 71/170/206
f 83/202/176 84/203/207 64/154/177
f 66/158/179 75/181/208 70/168/180
f 76/183/183 72/173/194 69/166/184
f 63/152/186 73/176/192 81/197/187
f 67/161/189 81/198/209 82/200/190
f 82/200/210 76/184/210 68/164/210
f 71/170/211 83/202/212 70/168/213
f 71/170/211 84/204/214 83/202/212
