mtllib policeBelt.mtl
o chest
v -0.284051 0.832542 0.144025
v -0.284051 0.779820 -0.146168
v -0.284051 0.779820 0.144025
v -0.284051 0.832542 -0.146168
v 0.286954 0.779820 -0.146168
v 0.286954 0.832542 -0.146168
v 0.286954 0.779820 0.144025
v 0.286954 0.832542 0.144025
v -0.259472 0.779820 -0.124898
v -0.259472 0.779820 0.122755
v 0.262376 0.779820 -0.124898
v 0.262376 0.832542 -0.124898
v 0.262376 0.832542 0.122755
v -0.259472 0.832542 -0.124898
v -0.259472 0.832542 0.122755
v 0.262376 0.779820 0.122755
v -0.022770 0.843308 -0.125682
v 0.048385 0.769994 -0.160743
v -0.022770 0.769994 -0.125682
v -0.015175 0.769994 -0.110268
v 0.055980 0.843308 -0.145329
v 0.048385 0.843308 -0.160743
v 0.055980 0.769994 -0.145329
v -0.015175 0.843308 -0.110268
v 0.342830 0.838104 -0.118407
v 0.350651 0.787187 -0.020344
v 0.351289 0.787187 -0.118373
v 0.282531 0.838104 -0.118629
v 0.342830 0.686889 -0.118407
v 0.342193 0.838104 -0.020377
v 0.335432 0.838104 -0.111117
v 0.334949 0.838104 -0.027687
v 0.342193 0.686889 -0.020377
v 0.282531 0.686889 -0.118629
v 0.281894 0.838104 -0.020599
v 0.281894 0.686889 -0.020599
v 0.289292 0.686889 -0.027889
v 0.289292 0.838104 -0.027889
v 0.289775 0.838104 -0.111319
v 0.335432 0.686889 -0.111117
v 0.289775 0.686889 -0.111319
v 0.334949 0.686889 -0.027687
v -0.280170 0.808923 -0.044855
v -0.316880 0.882225 -0.044855
v -0.322330 0.808923 -0.044855
v -0.316880 0.882225 -0.106075
v -0.316880 0.882225 -0.044855
v -0.280170 0.808923 -0.106075
v -0.322330 0.808923 -0.106075
v -0.316880 0.735621 -0.106075
v -0.280170 0.735621 -0.044855
v -0.316880 0.735621 -0.044855
v -0.280170 0.882225 -0.106075
v -0.280170 0.735621 -0.106075
v -0.207805 0.804089 -0.145153
v -0.207805 0.879837 -0.183088
v -0.207805 0.804089 -0.188720
v -0.144542 0.798242 -0.197593
v -0.144542 0.804089 -0.188720
v -0.144542 0.879837 -0.183088
v -0.144542 0.804089 -0.145153
v -0.144542 0.728341 -0.183088
v -0.207805 0.728341 -0.145153
v -0.207805 0.728341 -0.183088
v -0.144542 0.879837 -0.145153
v -0.144542 0.728341 -0.145153
v -0.119284 0.804089 -0.145153
v -0.119284 0.879837 -0.183088
v -0.119284 0.804089 -0.188720
v -0.119284 0.879837 -0.183088
v -0.119284 0.798242 -0.197593
v -0.056020 0.879837 -0.183088
v -0.056020 0.804089 -0.145153
v -0.056020 0.804089 -0.188720
v -0.056020 0.728341 -0.183088
v -0.119284 0.728341 -0.145153
v -0.119284 0.728341 -0.183088
v -0.056020 0.879837 -0.145153
v -0.056020 0.728341 -0.145153
v 0.119743 0.804041 -0.142298
v 0.138621 0.858855 -0.168400
v 0.129506 0.804089 -0.170379
v 0.231147 0.858855 -0.168400
v 0.250024 0.804041 -0.142298
v 0.240261 0.804089 -0.170379
v 0.153252 0.750498 -0.168400
v 0.220345 0.743961 -0.142298
v 0.149422 0.743961 -0.142298
v 0.236748 0.865439 -0.142298
v 0.216515 0.750498 -0.168400
v -0.280170 0.882225 -0.044855
v -0.207805 0.879837 -0.145153
v -0.119284 0.879837 -0.145153
v 0.133019 0.865439 -0.142298
v -0.207805 0.879837 -0.183088
v -0.207805 0.798242 -0.197593
v -0.056020 0.798242 -0.197593
v -0.056020 0.879837 -0.183088
v -0.144542 0.879837 -0.183088
v -0.337169 0.803395 -0.106075
v -0.337169 0.803395 -0.044855
v -0.316880 0.882225 -0.106075
vn -1.0000 -0.0000 -0.0000
vn -0.0000 -0.0000 -1.0000
vn 1.0000 -0.0000 -0.0000
vn -0.0000 -0.0000 1.0000
vn -0.0000 -1.0000 -0.0000
vn -0.0000 1.0000 -0.0000
vn -0.4420 -0.0000 -0.8970
vn 0.8970 -0.0000 -0.4420
vn 0.4420 -0.0000 0.8970
vn -0.8970 -0.0000 0.4420
vn 0.9865 0.1639 0.0064
vn 0.0037 -0.0000 -1.0000
vn 0.9964 -0.0840 0.0065
vn -1.0000 -0.0000 -0.0065
vn -0.0037 -0.0000 1.0000
vn 0.0044 -0.0000 -1.0000
vn -0.0044 -0.0000 1.0000
vn 1.0000 -0.0000 0.0058
vn -1.0000 -0.0000 -0.0058
vn 0.0037 -0.0001 -1.0000
vn -0.0000 0.7071 0.7071
vn -0.0000 -0.0000 -0.0000
vn -0.0000 0.0059 -1.0000
vn -0.0000 0.0051 -1.0000
vn -0.9972 -0.0741 -0.0000
vn -0.7232 -0.0000 0.6906
vn -0.0000 -0.8350 0.5502
vn 1.0000 -0.0003 -0.0000
vn -0.0000 -0.0741 -0.9972
vn -1.0000 -0.0001 -0.0000
vn 0.0003 1.0000 -0.0000
vn -0.9314 0.1667 -0.3235
vn 0.9314 0.1667 -0.3235
vn -0.0000 -0.9700 -0.2429
vn -0.0000 0.9696 -0.2446
vn 0.8713 -0.4304 -0.2356
vn -0.0000 -0.0369 -0.9993
vn -0.8713 -0.4304 -0.2356
vn -0.0000 0.0361 -0.9993
vn -0.0000 0.1750 -0.9846
vn 0.0646 -0.0000 0.9979
vn -0.9684 0.2493 -0.0000
vn 0.3491 -0.9371 -0.0000
vn -0.9452 0.2044 -0.2544
vn 0.9453 0.2044 -0.2544
vn 0.8673 -0.3955 -0.3022
vn -0.8673 -0.3955 -0.3022
vn -0.0000 1.0000 0.0001
vn -0.0001 1.0000 -0.0000
vt 0.416175 0.675870
vt 0.383486 0.007813
vt 0.632421 0.864124
vt 0.455488 0.007813
vt 0.135333 0.624847
vt 0.362507 0.009695
vt 0.416175 0.624847
vt 0.434509 0.007813
vt 0.081667 0.009696
vt 0.135333 0.675870
vt 0.506512 0.007813
vt 0.632420 0.583283
vt 0.405422 0.696849
vt 0.455489 0.560417
vt 0.362507 0.562303
vt 0.506512 0.560417
vt 0.405422 0.747872
vt 0.079815 0.583283
vt 0.434510 0.560417
vt 0.124580 0.696849
vt 0.081667 0.562304
vt 0.124580 0.747872
vt 0.383486 0.560417
vt 0.079815 0.864124
vt 0.341923 0.033481
vt 0.007812 0.752515
vt 0.102251 0.033483
vt 0.007812 0.992188
vt 0.527491 0.007813
vt 0.341923 0.538517
vt 0.007812 0.247484
vt 0.103601 0.603868
vt 0.058836 0.247484
vt 0.103601 0.843539
vt 0.058836 0.007812
vt 0.578514 0.512844
vt 0.608634 0.603867
vt 0.058836 0.752515
vt 0.058836 0.992188
vt 0.608634 0.843539
vt 0.578514 0.007813
vt 0.527491 0.512844
vt 0.102252 0.538517
vt 0.007812 0.007812
vt 0.505828 0.624847
vt 0.284607 0.054460
vt 0.301224 0.245026
vt 0.437154 0.699150
vt 0.300971 0.224047
vt 0.437154 0.624847
vt 0.300971 0.149743
vt 0.301224 0.313700
vt 0.437154 0.789550
vt 0.284875 0.149743
vt 0.285127 0.313700
vt 0.300703 0.128764
vt 0.505828 0.715247
vt 0.284607 0.128764
vt 0.505828 0.699150
vt 0.284875 0.224047
vt 0.437154 0.715247
vt 0.300703 0.054460
vt 0.505828 0.789550
vt 0.285127 0.245026
vt 0.745315 0.071541
vt 0.479008 0.885132
vt 0.694662 0.161569
vt 0.696008 0.073613
vt 0.223417 0.978199
vt 0.749751 0.010382
vt 0.536272 0.885294
vt 0.458029 0.885132
vt 0.600512 0.069114
vt 0.742281 0.165716
vt 0.479008 0.978229
vt 0.485990 0.892101
vt 0.123231 0.076920
vt 0.123231 0.351106
vt 0.485933 0.971332
vt 0.601068 0.165301
vt 0.458029 0.978228
vt 0.599733 0.007984
vt 0.079815 0.978199
vt 0.400765 0.885294
vt 0.223417 0.885103
vt 0.744585 0.224487
vt 0.536272 0.978390
vt 0.400765 0.978390
vt 0.079815 0.885103
vt 0.599733 0.224417
vt 0.191439 0.202702
vt 0.407747 0.971422
vt 0.529291 0.971422
vt 0.264163 0.329538
vt 0.529348 0.892190
vt 0.263394 0.056126
vt 0.195558 0.203353
vt 0.451048 0.892101
vt 0.193899 0.206017
vt 0.407690 0.892190
vt 0.193269 0.200043
vt 0.451105 0.971331
vt 0.776989 0.316076
vt 0.653400 0.655285
vt 0.798448 0.215733
vt 0.735014 0.391542
vt 0.735680 0.317586
vt 0.798448 0.161021
vt 0.674738 0.389642
vt 0.734047 0.390480
vt 0.642002 0.322511
vt 0.708112 0.655285
vt 0.680818 0.322657
vt 0.799000 0.140042
vt 0.675099 0.254659
vt 0.765561 0.244006
vt 0.766193 0.085330
vt 0.653400 0.589776
vt 0.799000 0.085330
vt 0.729468 0.249729
vt 0.641296 0.389288
vt 0.765640 0.161021
vt 0.708112 0.720795
vt 0.641296 0.255013
vt 0.766193 0.140042
vt 0.708112 0.589776
vt 0.743933 0.486853
vt 0.583345 0.692542
vt 0.729091 0.718461
vt 0.702895 0.568797
vt 0.702061 0.485116
vt 0.665953 0.486043
vt 0.656762 0.480931
vt 0.729091 0.774999
vt 0.628589 0.553862
vt 0.617369 0.472427
vt 0.526807 0.692542
vt 0.242373 0.768851
vt 0.660719 0.416352
vt 0.740850 0.418960
vt 0.185835 0.802753
vt 0.583345 0.760237
vt 0.185835 0.768851
vt 0.706849 0.420505
vt 0.593734 0.542025
vt 0.762993 0.774999
vt 0.526807 0.624847
vt 0.629575 0.410239
vt 0.242373 0.802753
vt 0.526807 0.760237
vt 0.784147 0.878452
vt 0.312091 0.885103
vt 0.743109 0.960396
vt 0.319890 0.768851
vt 0.742275 0.876715
vt 0.741990 0.958882
vt 0.730414 0.882402
vt 0.263352 0.768851
vt 0.668803 0.945461
vt 0.657584 0.864026
vt 0.312091 0.941641
vt 0.696977 0.872531
vt 0.771505 0.007813
vt 0.700933 0.807951
vt 0.781064 0.810560
vt 0.805407 0.064351
vt 0.379786 0.885103
vt 0.771505 0.064351
vt 0.747063 0.812104
vt 0.633948 0.933624
vt 0.263352 0.802753
vt 0.244396 0.941641
vt 0.669789 0.801838
vt 0.805407 0.007813
vt 0.379786 0.941641
vt 0.221473 0.358368
vt 0.786538 0.583074
vt 0.264255 0.405818
vt 0.221309 0.394334
vt 0.261148 0.474127
vt 0.212106 0.516192
vt 0.786538 0.699505
vt 0.216226 0.479855
vt 0.176169 0.409488
vt 0.148600 0.471754
vt 0.840230 0.672982
vt 0.149136 0.394420
vt 0.840230 0.609598
vt 0.287340 0.492681
vt 0.731667 0.687641
vt 0.173262 0.458598
vt 0.773647 0.393216
vt 0.765640 0.215733
vt 0.653400 0.720795
vt 0.743933 0.568797
vt 0.762993 0.718461
vt 0.583345 0.624846
vt 0.784147 0.960396
vt 0.319890 0.802753
vt 0.244396 0.885103
vt 0.287340 0.389763
vt 0.731667 0.594939
vt 0.701776 0.567282
vt 0.690200 0.490803
vt 0.706167 0.877643
vt 0.670484 0.944185
vt 0.630270 0.552586
vt 0.694262 0.329984
vt 0.720324 0.331020
vt 0.675820 0.388424
usemtl Default_OBJ
f 1/1/1 2/5/1 3/7/1
f 4/11/2 5/14/2 2/4/2
f 6/17/3 7/20/3 5/13/3
f 8/23/4 3/8/4 7/19/4
f 3/9/5 9/25/5 10/27/5
f 5/15/5 7/21/5 11/30/5
f 8/24/6 12/32/6 13/34/6
f 4/12/6 1/3/6 14/37/6
f 10/28/3 14/38/3 15/39/3
f 9/26/4 12/33/4 14/38/4
f 16/44/1 12/33/1 11/31/1
f 10/29/2 13/36/2 16/42/2
f 1/1/1 4/10/1 2/5/1
f 4/11/2 6/16/2 5/14/2
f 6/17/3 8/22/3 7/20/3
f 8/23/4 1/2/4 3/8/4
f 3/9/5 2/6/5 9/25/5
f 11/30/5 9/25/5 2/6/5
f 7/21/5 3/9/5 10/27/5
f 7/21/5 10/27/5 16/43/5
f 11/30/5 2/6/5 5/15/5
f 7/21/5 16/43/5 11/30/5
f 8/24/6 6/18/6 12/32/6
f 14/37/6 12/32/6 6/18/6
f 1/3/6 8/24/6 13/34/6
f 1/3/6 13/34/6 15/40/6
f 14/37/6 6/18/6 4/12/6
f 1/3/6 15/40/6 14/37/6
f 10/28/3 9/26/3 14/38/3
f 9/26/4 11/31/4 12/33/4
f 16/44/1 13/35/1 12/33/1
f 10/29/2 15/41/2 13/36/2
f 17/45/7 18/48/7 19/50/7
f 18/49/5 20/54/5 19/51/5
f 17/46/6 21/56/6 22/58/6
f 22/59/8 23/61/8 18/48/8
f 23/61/9 24/63/9 20/53/9
f 20/55/10 17/47/10 19/52/10
f 17/45/7 22/59/7 18/48/7
f 18/49/5 23/60/5 20/54/5
f 17/46/6 24/62/6 21/56/6
f 22/59/8 21/57/8 23/61/8
f 23/61/9 21/57/9 24/63/9
f 20/55/10 24/64/10 17/47/10
f 25/65/11 26/67/11 27/68/11
f 28/70/12 27/68/12 29/73/12
f 30/75/6 31/76/6 32/79/6
f 29/73/13 26/67/13 33/80/13
f 34/83/14 35/85/14 28/69/14
f 26/67/15 35/86/15 36/90/15
f 32/78/16 37/91/16 38/94/16
f 28/71/6 38/93/6 39/95/6
f 30/75/6 38/93/6 35/87/6
f 28/71/6 31/76/6 25/66/6
f 33/81/5 40/98/5 29/72/5
f 39/96/17 40/97/17 31/77/17
f 38/94/18 41/99/18 39/96/18
f 31/77/19 42/101/19 32/78/19
f 37/92/5 33/81/5 36/88/5
f 34/84/5 37/92/5 36/88/5
f 40/98/5 34/84/5 29/72/5
f 25/65/11 30/74/11 26/67/11
f 29/73/12 34/82/12 28/70/12
f 28/70/12 25/65/20 27/68/12
f 30/75/6 25/66/6 31/76/6
f 29/73/13 27/68/13 26/67/13
f 34/83/14 36/89/14 35/85/14
f 36/90/15 33/80/15 26/67/15
f 26/67/15 30/74/15 35/86/15
f 32/78/16 42/101/16 37/91/16
f 28/71/6 35/87/6 38/93/6
f 30/75/6 32/79/6 38/93/6
f 28/71/6 39/95/6 31/76/6
f 33/81/5 42/102/5 40/98/5
f 39/96/17 41/99/17 40/97/17
f 38/94/18 37/91/18 41/99/18
f 31/77/19 40/97/19 42/101/19
f 37/92/5 42/102/5 33/81/5
f 34/84/5 41/100/5 37/92/5
f 40/98/5 41/100/5 34/84/5
f 43/103/4 44/106/4 45/107/4
f 46/109/21 47/110/22 44/106/6
f 46/109/23 48/111/2 49/113/24
f 50/114/5 51/117/5 52/119/5
f 44/105/6 53/122/6 46/108/21
f 50/115/2 48/111/2 54/124/2
f 45/107/25 50/115/25 52/120/25
f 43/103/4 52/120/4 51/116/4
f 55/127/1 56/130/26 57/131/1
f 57/131/27 58/132/27 59/133/27
f 60/135/28 61/136/3 59/133/3
f 62/138/5 63/141/5 64/143/5
f 56/129/6 65/146/6 60/134/21
f 62/139/3 61/136/3 66/148/3
f 57/131/29 62/139/29 64/144/29
f 55/127/1 64/144/1 63/140/1
f 67/151/1 68/153/26 69/155/1
f 69/155/1 70/156/30 71/157/1
f 72/159/28 73/160/3 74/162/3
f 75/163/5 76/166/5 77/168/5
f 68/154/31 78/171/6 72/158/21
f 75/164/3 73/160/3 79/173/3
f 69/155/29 75/164/29 77/169/29
f 67/151/1 77/169/1 76/165/1
f 80/176/32 81/178/32 82/179/32
f 83/180/33 84/181/33 85/183/33
f 86/184/34 87/185/34 88/187/34
f 81/178/35 89/189/35 83/180/35
f 90/191/36 84/181/36 87/185/36
f 86/184/37 85/183/37 90/191/37
f 80/176/38 86/184/38 88/187/38
f 85/183/39 81/178/39 83/180/39
f 51/118/3 48/112/3 91/194/3
f 63/142/4 61/137/4 92/197/4
f 76/167/4 73/161/4 93/200/4
f 88/188/4 84/182/4 94/202/4
f 95/203/40 58/132/40 96/204/40
f 70/156/40 97/205/40 71/157/40
f 72/159/21 70/156/2 68/153/31
f 57/131/1 95/203/30 96/204/1
f 74/162/3 98/206/41 72/159/28
f 60/135/21 95/203/2 56/130/6
f 69/155/27 97/205/27 74/162/27
f 59/133/3 99/207/41 60/135/28
f 47/110/42 100/208/42 101/209/42
f 49/113/24 102/210/2 46/109/23
f 45/107/43 100/208/43 49/113/43
f 44/106/4 101/209/4 45/107/4
f 43/103/4 91/192/4 44/106/4
f 46/109/21 102/210/22 47/110/22
f 46/109/23 53/121/2 48/111/2
f 50/114/5 54/125/5 51/117/5
f 44/105/6 91/193/6 53/122/6
f 50/115/2 49/113/24 48/111/2
f 45/107/25 49/113/25 50/115/25
f 43/103/4 45/107/4 52/120/4
f 55/127/1 92/195/1 56/130/26
f 57/131/27 96/204/27 58/132/27
f 60/135/28 65/145/3 61/136/3
f 62/138/5 66/149/5 63/141/5
f 56/129/6 92/196/6 65/146/6
f 62/139/3 59/133/3 61/136/3
f 57/131/29 59/133/29 62/139/29
f 55/127/1 57/131/1 64/144/1
f 67/151/1 93/198/1 68/153/26
f 69/155/1 68/153/26 70/156/30
f 72/159/28 78/170/3 73/160/3
f 75/163/5 79/174/5 76/166/5
f 68/154/31 93/199/6 78/171/6
f 75/164/3 74/162/3 73/160/3
f 69/155/29 74/162/29 75/164/29
f 67/151/1 69/155/1 77/169/1
f 80/176/44 94/201/44 81/178/44
f 83/180/45 89/189/45 84/181/45
f 86/184/34 90/191/34 87/185/34
f 81/178/35 94/201/35 89/189/35
f 90/191/46 85/183/46 84/181/46
f 86/184/37 82/179/37 85/183/37
f 80/176/47 82/179/47 86/184/47
f 85/183/39 82/179/39 81/178/39
f 91/194/48 43/104/6 51/118/6
f 51/118/3 54/126/3 48/112/3
f 48/112/3 53/123/3 91/194/3
f 92/197/49 55/128/6 63/142/6
f 63/142/4 66/150/4 61/137/4
f 61/137/4 65/147/4 92/197/4
f 93/200/49 67/152/6 76/167/6
f 76/167/4 79/175/4 73/161/4
f 73/161/4 78/172/4 93/200/4
f 94/202/4 80/177/4 88/188/4
f 88/188/4 87/186/4 84/182/4
f 84/182/4 89/190/4 94/202/4
f 95/203/40 99/207/40 58/132/40
f 70/156/40 98/206/40 97/205/40
f 72/159/21 98/206/6 70/156/2
f 57/131/1 56/130/26 95/203/30
f 74/162/3 97/205/3 98/206/41
f 60/135/21 99/207/6 95/203/2
f 69/155/27 71/157/27 97/205/27
f 59/133/3 58/132/3 99/207/41
f 47/110/42 102/210/42 100/208/42
f 49/113/24 100/208/2 102/210/2
f 45/107/43 101/209/43 100/208/43
f 44/106/4 47/110/4 101/209/4
